<mxfile host="app.diagrams.net" agent="Mozilla/5.0 (Windows NT 10.0; Win64; x64) AppleWebKit/537.36 (KHTML, like Gecko) Chrome/128.0.0.0 YaBrowser/24.10.0.0 Safari/537.36" version="25.0.3">
  <diagram name="Страница — 1" id="S1-lf1Q6hKKUr0ek-qJP">
    <mxGraphModel dx="1432" dy="951" grid="1" gridSize="10" guides="1" tooltips="1" connect="1" arrows="1" fold="1" page="1" pageScale="1" pageWidth="1169" pageHeight="827" math="0" shadow="0">
      <root>
        <mxCell id="0" />
        <mxCell id="1" parent="0" />
        <mxCell id="QRAolXh0xecNg5NYorig-1" value="&lt;div style=&quot;text-align: left;&quot;&gt;&lt;b style=&quot;background-color: initial;&quot;&gt;&lt;font style=&quot;font-size: 21px;&quot;&gt;User Story&lt;/font&gt;&lt;/b&gt;&lt;/div&gt;&lt;div style=&quot;text-align: left; font-size: 6px;&quot;&gt;&lt;br&gt;&lt;/div&gt;&lt;div&gt;&lt;div&gt;&lt;div style=&quot;text-align: left;&quot;&gt;&lt;span style=&quot;font-size: 14px;&quot;&gt;Я, как покупатель на маркетплейсе,&lt;/span&gt;&lt;/div&gt;&lt;div style=&quot;text-align: left;&quot;&gt;&lt;span style=&quot;font-size: 14px;&quot;&gt;хочу, чтобы все купленные мною товары автоматически добавлялись и хранились в личном разделе &lt;b&gt;&lt;font color=&quot;#4f4f4f&quot;&gt;Покупки&lt;/font&gt;&lt;/b&gt;,&lt;/span&gt;&lt;/div&gt;&lt;div style=&quot;text-align: left;&quot;&gt;&lt;span style=&quot;font-size: 14px;&quot;&gt;для того, чтобы я мог быстрее найти нужный товар для повторной покупки или рекомендации&lt;/span&gt;&lt;/div&gt;&lt;/div&gt;&lt;/div&gt;" style="text;html=1;align=center;verticalAlign=middle;resizable=0;points=[];autosize=1;strokeColor=none;fillColor=none;" parent="1" vertex="1">
          <mxGeometry x="40" y="20" width="750" height="100" as="geometry" />
        </mxCell>
        <mxCell id="zcUEx8ZnKFg3kneJtw9s-32" value="&lt;span style=&quot;color: rgb(79, 79, 79); text-align: left;&quot;&gt;&lt;font style=&quot;font-size: 14px;&quot;&gt;&lt;b&gt;GET /&lt;/b&gt;purchases/{customerId}&lt;/font&gt;&lt;/span&gt;" style="text;html=1;align=center;verticalAlign=middle;whiteSpace=wrap;rounded=0;" vertex="1" parent="1">
          <mxGeometry x="50" y="180" width="190" height="30" as="geometry" />
        </mxCell>
        <mxCell id="zcUEx8ZnKFg3kneJtw9s-33" value="" style="shape=table;startSize=0;container=1;collapsible=0;childLayout=tableLayout;" vertex="1" parent="1">
          <mxGeometry x="40" y="250" width="1090" height="60" as="geometry" />
        </mxCell>
        <mxCell id="zcUEx8ZnKFg3kneJtw9s-34" value="" style="shape=tableRow;horizontal=0;startSize=0;swimlaneHead=0;swimlaneBody=0;top=0;left=0;bottom=0;right=0;collapsible=0;dropTarget=0;points=[[0,0.5],[1,0.5]];portConstraint=eastwest;fillColor=#eeeeee;strokeColor=#36393d;" vertex="1" parent="zcUEx8ZnKFg3kneJtw9s-33">
          <mxGeometry width="1090" height="30" as="geometry" />
        </mxCell>
        <mxCell id="zcUEx8ZnKFg3kneJtw9s-35" value="&lt;span style=&quot;text-align: left; color: rgb(79, 79, 79);&quot;&gt;&lt;b style=&quot;&quot;&gt;&lt;font style=&quot;font-size: 14px;&quot;&gt;Название параметра&lt;/font&gt;&lt;/b&gt;&lt;/span&gt;" style="shape=partialRectangle;html=1;whiteSpace=wrap;connectable=0;overflow=hidden;top=0;left=0;bottom=0;right=0;pointerEvents=1;fillStyle=auto;fillColor=#eeeeee;strokeColor=#36393d;" vertex="1" parent="zcUEx8ZnKFg3kneJtw9s-34">
          <mxGeometry width="180" height="30" as="geometry">
            <mxRectangle width="180" height="30" as="alternateBounds" />
          </mxGeometry>
        </mxCell>
        <mxCell id="zcUEx8ZnKFg3kneJtw9s-59" value="&lt;div style=&quot;text-align: left;&quot;&gt;&lt;span style=&quot;background-color: initial;&quot;&gt;&lt;font style=&quot;font-size: 14px;&quot; color=&quot;#4f4f4f&quot;&gt;&lt;b style=&quot;&quot;&gt;Принадлежность&lt;/b&gt;&lt;/font&gt;&lt;/span&gt;&lt;/div&gt;" style="shape=partialRectangle;html=1;whiteSpace=wrap;connectable=0;strokeColor=default;overflow=hidden;fillColor=none;top=0;left=0;bottom=0;right=0;pointerEvents=1;" vertex="1" parent="zcUEx8ZnKFg3kneJtw9s-34">
          <mxGeometry x="180" width="140" height="30" as="geometry">
            <mxRectangle width="140" height="30" as="alternateBounds" />
          </mxGeometry>
        </mxCell>
        <mxCell id="zcUEx8ZnKFg3kneJtw9s-36" value="&lt;div style=&quot;text-align: left;&quot;&gt;&lt;span style=&quot;background-color: initial;&quot;&gt;&lt;font style=&quot;font-size: 14px;&quot; color=&quot;#4f4f4f&quot;&gt;&lt;b style=&quot;&quot;&gt;Тип данных&amp;nbsp;&lt;/b&gt;&lt;/font&gt;&lt;/span&gt;&lt;/div&gt;" style="shape=partialRectangle;html=1;whiteSpace=wrap;connectable=0;strokeColor=default;overflow=hidden;fillColor=none;top=0;left=0;bottom=0;right=0;pointerEvents=1;" vertex="1" parent="zcUEx8ZnKFg3kneJtw9s-34">
          <mxGeometry x="320" width="100" height="30" as="geometry">
            <mxRectangle width="100" height="30" as="alternateBounds" />
          </mxGeometry>
        </mxCell>
        <mxCell id="zcUEx8ZnKFg3kneJtw9s-37" value="&lt;div style=&quot;text-align: left;&quot;&gt;&lt;span style=&quot;background-color: initial;&quot;&gt;&lt;font style=&quot;font-size: 14px;&quot; color=&quot;#4f4f4f&quot;&gt;&lt;b style=&quot;&quot;&gt;Описание&lt;/b&gt;&lt;/font&gt;&lt;/span&gt;&lt;/div&gt;" style="shape=partialRectangle;html=1;whiteSpace=wrap;connectable=0;strokeColor=default;overflow=hidden;fillColor=none;top=0;left=0;bottom=0;right=0;pointerEvents=1;" vertex="1" parent="zcUEx8ZnKFg3kneJtw9s-34">
          <mxGeometry x="420" width="520" height="30" as="geometry">
            <mxRectangle width="520" height="30" as="alternateBounds" />
          </mxGeometry>
        </mxCell>
        <mxCell id="zcUEx8ZnKFg3kneJtw9s-38" value="&lt;b style=&quot;color: rgb(79, 79, 79); text-align: left;&quot;&gt;&lt;font style=&quot;font-size: 14px;&quot;&gt;Обязательность&lt;/font&gt;&lt;/b&gt;" style="shape=partialRectangle;html=1;whiteSpace=wrap;connectable=0;strokeColor=default;overflow=hidden;fillColor=none;top=0;left=0;bottom=0;right=0;pointerEvents=1;" vertex="1" parent="zcUEx8ZnKFg3kneJtw9s-34">
          <mxGeometry x="940" width="150" height="30" as="geometry">
            <mxRectangle width="150" height="30" as="alternateBounds" />
          </mxGeometry>
        </mxCell>
        <mxCell id="zcUEx8ZnKFg3kneJtw9s-39" value="" style="shape=tableRow;horizontal=0;startSize=0;swimlaneHead=0;swimlaneBody=0;strokeColor=inherit;top=0;left=0;bottom=0;right=0;collapsible=0;dropTarget=0;fillColor=none;points=[[0,0.5],[1,0.5]];portConstraint=eastwest;" vertex="1" parent="zcUEx8ZnKFg3kneJtw9s-33">
          <mxGeometry y="30" width="1090" height="30" as="geometry" />
        </mxCell>
        <mxCell id="zcUEx8ZnKFg3kneJtw9s-40" value="&lt;div style=&quot;&quot;&gt;&lt;span style=&quot;background-color: initial; font-size: 14px;&quot;&gt;&lt;font color=&quot;#4f4f4f&quot;&gt;&amp;nbsp; &amp;nbsp;customerId&lt;/font&gt;&lt;/span&gt;&lt;/div&gt;" style="shape=partialRectangle;html=1;whiteSpace=wrap;connectable=0;strokeColor=inherit;overflow=hidden;fillColor=none;top=0;left=0;bottom=0;right=0;pointerEvents=1;align=left;" vertex="1" parent="zcUEx8ZnKFg3kneJtw9s-39">
          <mxGeometry width="180" height="30" as="geometry">
            <mxRectangle width="180" height="30" as="alternateBounds" />
          </mxGeometry>
        </mxCell>
        <mxCell id="zcUEx8ZnKFg3kneJtw9s-60" value="&lt;div style=&quot;text-align: left;&quot;&gt;&lt;span style=&quot;background-color: initial; font-size: 14px;&quot;&gt;&lt;font color=&quot;#4f4f4f&quot;&gt;path&lt;/font&gt;&lt;/span&gt;&lt;/div&gt;" style="shape=partialRectangle;html=1;whiteSpace=wrap;connectable=0;strokeColor=inherit;overflow=hidden;fillColor=none;top=0;left=0;bottom=0;right=0;pointerEvents=1;" vertex="1" parent="zcUEx8ZnKFg3kneJtw9s-39">
          <mxGeometry x="180" width="140" height="30" as="geometry">
            <mxRectangle width="140" height="30" as="alternateBounds" />
          </mxGeometry>
        </mxCell>
        <mxCell id="zcUEx8ZnKFg3kneJtw9s-41" value="&lt;div style=&quot;text-align: left;&quot;&gt;&lt;span style=&quot;background-color: initial; font-size: 14px;&quot;&gt;&lt;font color=&quot;#4f4f4f&quot;&gt;integer&lt;/font&gt;&lt;/span&gt;&lt;/div&gt;" style="shape=partialRectangle;html=1;whiteSpace=wrap;connectable=0;strokeColor=inherit;overflow=hidden;fillColor=none;top=0;left=0;bottom=0;right=0;pointerEvents=1;" vertex="1" parent="zcUEx8ZnKFg3kneJtw9s-39">
          <mxGeometry x="320" width="100" height="30" as="geometry">
            <mxRectangle width="100" height="30" as="alternateBounds" />
          </mxGeometry>
        </mxCell>
        <mxCell id="zcUEx8ZnKFg3kneJtw9s-42" value="&lt;div style=&quot;text-align: left;&quot;&gt;&lt;span style=&quot;background-color: initial; font-size: 14px;&quot;&gt;&lt;font color=&quot;#4f4f4f&quot;&gt;Уникальный идентификатор покупателя&lt;/font&gt;&lt;/span&gt;&lt;/div&gt;" style="shape=partialRectangle;html=1;whiteSpace=wrap;connectable=0;strokeColor=inherit;overflow=hidden;fillColor=none;top=0;left=0;bottom=0;right=0;pointerEvents=1;" vertex="1" parent="zcUEx8ZnKFg3kneJtw9s-39">
          <mxGeometry x="420" width="520" height="30" as="geometry">
            <mxRectangle width="520" height="30" as="alternateBounds" />
          </mxGeometry>
        </mxCell>
        <mxCell id="zcUEx8ZnKFg3kneJtw9s-43" value="&lt;div style=&quot;text-align: left;&quot;&gt;&lt;span style=&quot;background-color: initial; font-size: 14px;&quot;&gt;&lt;font color=&quot;#4f4f4f&quot;&gt;да&lt;/font&gt;&lt;/span&gt;&lt;/div&gt;" style="shape=partialRectangle;html=1;whiteSpace=wrap;connectable=0;strokeColor=inherit;overflow=hidden;fillColor=none;top=0;left=0;bottom=0;right=0;pointerEvents=1;" vertex="1" parent="zcUEx8ZnKFg3kneJtw9s-39">
          <mxGeometry x="940" width="150" height="30" as="geometry">
            <mxRectangle width="150" height="30" as="alternateBounds" />
          </mxGeometry>
        </mxCell>
        <mxCell id="zcUEx8ZnKFg3kneJtw9s-64" value="&lt;div style=&quot;text-align: left;&quot;&gt;&lt;font color=&quot;#4f4f4f&quot;&gt;&lt;span style=&quot;font-size: 14px;&quot;&gt;&lt;b&gt;Request&lt;/b&gt;&lt;/span&gt;&lt;/font&gt;&lt;/div&gt;" style="text;html=1;align=center;verticalAlign=middle;whiteSpace=wrap;rounded=0;" vertex="1" parent="1">
          <mxGeometry x="45" y="150" width="70" height="30" as="geometry" />
        </mxCell>
        <mxCell id="zcUEx8ZnKFg3kneJtw9s-65" value="&lt;div style=&quot;text-align: left;&quot;&gt;&lt;span style=&quot;font-size: 14px;&quot;&gt;&lt;b style=&quot;&quot;&gt;&lt;font color=&quot;#007fff&quot;&gt;Запрос данных о покупках покупателя&lt;/font&gt;&lt;/b&gt;&lt;/span&gt;&lt;/div&gt;" style="text;html=1;align=center;verticalAlign=middle;whiteSpace=wrap;rounded=0;" vertex="1" parent="1">
          <mxGeometry x="48" y="210" width="280" height="30" as="geometry" />
        </mxCell>
        <mxCell id="zcUEx8ZnKFg3kneJtw9s-71" value="&lt;div style=&quot;text-align: left;&quot;&gt;&lt;span style=&quot;background-color: initial; font-size: 14px;&quot;&gt;&lt;font color=&quot;#4f4f4f&quot;&gt;&lt;b&gt;Code:&lt;/b&gt; 200&lt;/font&gt;&lt;/span&gt;&lt;/div&gt;" style="text;html=1;align=center;verticalAlign=middle;whiteSpace=wrap;rounded=0;" vertex="1" parent="1">
          <mxGeometry x="50" y="371" width="80" height="30" as="geometry" />
        </mxCell>
        <mxCell id="zcUEx8ZnKFg3kneJtw9s-72" value="" style="shape=table;startSize=0;container=1;collapsible=0;childLayout=tableLayout;" vertex="1" parent="1">
          <mxGeometry x="40" y="441" width="1090" height="359" as="geometry" />
        </mxCell>
        <mxCell id="zcUEx8ZnKFg3kneJtw9s-73" value="" style="shape=tableRow;horizontal=0;startSize=0;swimlaneHead=0;swimlaneBody=0;strokeColor=#36393d;top=0;left=0;bottom=0;right=0;collapsible=0;dropTarget=0;fillColor=#eeeeee;points=[[0,0.5],[1,0.5]];portConstraint=eastwest;" vertex="1" parent="zcUEx8ZnKFg3kneJtw9s-72">
          <mxGeometry width="1090" height="30" as="geometry" />
        </mxCell>
        <mxCell id="zcUEx8ZnKFg3kneJtw9s-74" value="&lt;span style=&quot;text-align: left; color: rgb(79, 79, 79);&quot;&gt;&lt;b style=&quot;&quot;&gt;&lt;font style=&quot;font-size: 14px;&quot;&gt;Название параметра&lt;/font&gt;&lt;/b&gt;&lt;/span&gt;" style="shape=partialRectangle;html=1;whiteSpace=wrap;connectable=0;overflow=hidden;top=0;left=0;bottom=0;right=0;pointerEvents=1;fillColor=#eeeeee;strokeColor=#36393d;" vertex="1" parent="zcUEx8ZnKFg3kneJtw9s-73">
          <mxGeometry width="180" height="30" as="geometry">
            <mxRectangle width="180" height="30" as="alternateBounds" />
          </mxGeometry>
        </mxCell>
        <mxCell id="zcUEx8ZnKFg3kneJtw9s-75" value="&lt;div style=&quot;text-align: left;&quot;&gt;&lt;span style=&quot;background-color: initial;&quot;&gt;&lt;font style=&quot;font-size: 14px;&quot; color=&quot;#4f4f4f&quot;&gt;&lt;b style=&quot;&quot;&gt;Принадлежность&lt;/b&gt;&lt;/font&gt;&lt;/span&gt;&lt;/div&gt;" style="shape=partialRectangle;html=1;whiteSpace=wrap;connectable=0;strokeColor=default;overflow=hidden;fillColor=none;top=0;left=0;bottom=0;right=0;pointerEvents=1;" vertex="1" parent="zcUEx8ZnKFg3kneJtw9s-73">
          <mxGeometry x="180" width="140" height="30" as="geometry">
            <mxRectangle width="140" height="30" as="alternateBounds" />
          </mxGeometry>
        </mxCell>
        <mxCell id="zcUEx8ZnKFg3kneJtw9s-76" value="&lt;div style=&quot;text-align: left;&quot;&gt;&lt;span style=&quot;background-color: initial;&quot;&gt;&lt;font style=&quot;font-size: 14px;&quot; color=&quot;#4f4f4f&quot;&gt;&lt;b style=&quot;&quot;&gt;Тип данных&amp;nbsp;&lt;/b&gt;&lt;/font&gt;&lt;/span&gt;&lt;/div&gt;" style="shape=partialRectangle;html=1;whiteSpace=wrap;connectable=0;strokeColor=default;overflow=hidden;fillColor=none;top=0;left=0;bottom=0;right=0;pointerEvents=1;" vertex="1" parent="zcUEx8ZnKFg3kneJtw9s-73">
          <mxGeometry x="320" width="100" height="30" as="geometry">
            <mxRectangle width="100" height="30" as="alternateBounds" />
          </mxGeometry>
        </mxCell>
        <mxCell id="zcUEx8ZnKFg3kneJtw9s-77" value="&lt;div style=&quot;text-align: left;&quot;&gt;&lt;span style=&quot;background-color: initial;&quot;&gt;&lt;font style=&quot;font-size: 14px;&quot; color=&quot;#4f4f4f&quot;&gt;&lt;b style=&quot;&quot;&gt;Описание&lt;/b&gt;&lt;/font&gt;&lt;/span&gt;&lt;/div&gt;" style="shape=partialRectangle;html=1;whiteSpace=wrap;connectable=0;strokeColor=default;overflow=hidden;fillColor=none;top=0;left=0;bottom=0;right=0;pointerEvents=1;" vertex="1" parent="zcUEx8ZnKFg3kneJtw9s-73">
          <mxGeometry x="420" width="520" height="30" as="geometry">
            <mxRectangle width="520" height="30" as="alternateBounds" />
          </mxGeometry>
        </mxCell>
        <mxCell id="zcUEx8ZnKFg3kneJtw9s-78" value="&lt;b style=&quot;color: rgb(79, 79, 79); text-align: left;&quot;&gt;&lt;font style=&quot;font-size: 14px;&quot;&gt;Обязательность&lt;/font&gt;&lt;/b&gt;" style="shape=partialRectangle;html=1;whiteSpace=wrap;connectable=0;strokeColor=default;overflow=hidden;fillColor=none;top=0;left=0;bottom=0;right=0;pointerEvents=1;" vertex="1" parent="zcUEx8ZnKFg3kneJtw9s-73">
          <mxGeometry x="940" width="150" height="30" as="geometry">
            <mxRectangle width="150" height="30" as="alternateBounds" />
          </mxGeometry>
        </mxCell>
        <mxCell id="zcUEx8ZnKFg3kneJtw9s-79" value="" style="shape=tableRow;horizontal=0;startSize=0;swimlaneHead=0;swimlaneBody=0;strokeColor=inherit;top=0;left=0;bottom=0;right=0;collapsible=0;dropTarget=0;fillColor=none;points=[[0,0.5],[1,0.5]];portConstraint=eastwest;" vertex="1" parent="zcUEx8ZnKFg3kneJtw9s-72">
          <mxGeometry y="30" width="1090" height="30" as="geometry" />
        </mxCell>
        <mxCell id="zcUEx8ZnKFg3kneJtw9s-80" value="&lt;div style=&quot;&quot;&gt;&lt;span style=&quot;background-color: initial; font-size: 14px;&quot;&gt;&lt;font color=&quot;#4f4f4f&quot;&gt;&amp;nbsp; &amp;nbsp;products&lt;/font&gt;&lt;/span&gt;&lt;/div&gt;" style="shape=partialRectangle;html=1;whiteSpace=wrap;connectable=0;strokeColor=inherit;overflow=hidden;fillColor=none;top=0;left=0;bottom=0;right=0;pointerEvents=1;align=left;" vertex="1" parent="zcUEx8ZnKFg3kneJtw9s-79">
          <mxGeometry width="180" height="30" as="geometry">
            <mxRectangle width="180" height="30" as="alternateBounds" />
          </mxGeometry>
        </mxCell>
        <mxCell id="zcUEx8ZnKFg3kneJtw9s-81" value="&lt;div style=&quot;text-align: left;&quot;&gt;&lt;font color=&quot;#4f4f4f&quot;&gt;&lt;span style=&quot;font-size: 14px;&quot;&gt;body&lt;/span&gt;&lt;/font&gt;&lt;/div&gt;" style="shape=partialRectangle;html=1;whiteSpace=wrap;connectable=0;strokeColor=inherit;overflow=hidden;fillColor=none;top=0;left=0;bottom=0;right=0;pointerEvents=1;" vertex="1" parent="zcUEx8ZnKFg3kneJtw9s-79">
          <mxGeometry x="180" width="140" height="30" as="geometry">
            <mxRectangle width="140" height="30" as="alternateBounds" />
          </mxGeometry>
        </mxCell>
        <mxCell id="zcUEx8ZnKFg3kneJtw9s-82" value="&lt;div style=&quot;text-align: left;&quot;&gt;&lt;font color=&quot;#4f4f4f&quot;&gt;&lt;span style=&quot;font-size: 14px;&quot;&gt;array&lt;/span&gt;&lt;/font&gt;&lt;/div&gt;" style="shape=partialRectangle;html=1;whiteSpace=wrap;connectable=0;strokeColor=inherit;overflow=hidden;fillColor=none;top=0;left=0;bottom=0;right=0;pointerEvents=1;" vertex="1" parent="zcUEx8ZnKFg3kneJtw9s-79">
          <mxGeometry x="320" width="100" height="30" as="geometry">
            <mxRectangle width="100" height="30" as="alternateBounds" />
          </mxGeometry>
        </mxCell>
        <mxCell id="zcUEx8ZnKFg3kneJtw9s-83" value="&lt;font color=&quot;#4f4f4f&quot;&gt;&lt;span style=&quot;font-size: 14px;&quot;&gt;Массив купленных покупателем товаров&lt;/span&gt;&lt;/font&gt;" style="shape=partialRectangle;html=1;whiteSpace=wrap;connectable=0;strokeColor=inherit;overflow=hidden;fillColor=none;top=0;left=0;bottom=0;right=0;pointerEvents=1;" vertex="1" parent="zcUEx8ZnKFg3kneJtw9s-79">
          <mxGeometry x="420" width="520" height="30" as="geometry">
            <mxRectangle width="520" height="30" as="alternateBounds" />
          </mxGeometry>
        </mxCell>
        <mxCell id="zcUEx8ZnKFg3kneJtw9s-84" value="&lt;div style=&quot;text-align: left;&quot;&gt;&lt;span style=&quot;background-color: initial; font-size: 14px;&quot;&gt;&lt;font color=&quot;#4f4f4f&quot;&gt;да&lt;/font&gt;&lt;/span&gt;&lt;/div&gt;" style="shape=partialRectangle;html=1;whiteSpace=wrap;connectable=0;strokeColor=inherit;overflow=hidden;fillColor=none;top=0;left=0;bottom=0;right=0;pointerEvents=1;" vertex="1" parent="zcUEx8ZnKFg3kneJtw9s-79">
          <mxGeometry x="940" width="150" height="30" as="geometry">
            <mxRectangle width="150" height="30" as="alternateBounds" />
          </mxGeometry>
        </mxCell>
        <mxCell id="zcUEx8ZnKFg3kneJtw9s-85" value="" style="shape=tableRow;horizontal=0;startSize=0;swimlaneHead=0;swimlaneBody=0;strokeColor=inherit;top=0;left=0;bottom=0;right=0;collapsible=0;dropTarget=0;fillColor=none;points=[[0,0.5],[1,0.5]];portConstraint=eastwest;" vertex="1" parent="zcUEx8ZnKFg3kneJtw9s-72">
          <mxGeometry y="60" width="1090" height="30" as="geometry" />
        </mxCell>
        <mxCell id="zcUEx8ZnKFg3kneJtw9s-86" value="&lt;span style=&quot;color: rgb(79, 79, 79); font-size: 14px; text-align: left;&quot;&gt;product&lt;/span&gt;" style="shape=partialRectangle;html=1;whiteSpace=wrap;connectable=0;strokeColor=inherit;overflow=hidden;fillColor=none;top=0;left=0;bottom=0;right=0;pointerEvents=1;" vertex="1" parent="zcUEx8ZnKFg3kneJtw9s-85">
          <mxGeometry width="180" height="30" as="geometry">
            <mxRectangle width="180" height="30" as="alternateBounds" />
          </mxGeometry>
        </mxCell>
        <mxCell id="zcUEx8ZnKFg3kneJtw9s-87" value="&lt;span style=&quot;color: rgb(79, 79, 79); font-size: 14px; text-align: left;&quot;&gt;body&lt;/span&gt;" style="shape=partialRectangle;html=1;whiteSpace=wrap;connectable=0;strokeColor=inherit;overflow=hidden;fillColor=none;top=0;left=0;bottom=0;right=0;pointerEvents=1;" vertex="1" parent="zcUEx8ZnKFg3kneJtw9s-85">
          <mxGeometry x="180" width="140" height="30" as="geometry">
            <mxRectangle width="140" height="30" as="alternateBounds" />
          </mxGeometry>
        </mxCell>
        <mxCell id="zcUEx8ZnKFg3kneJtw9s-88" value="&lt;div style=&quot;text-align: left;&quot;&gt;&lt;span style=&quot;background-color: initial; font-size: 14px;&quot;&gt;&lt;font color=&quot;#4f4f4f&quot;&gt;object&lt;/font&gt;&lt;/span&gt;&lt;/div&gt;" style="shape=partialRectangle;html=1;whiteSpace=wrap;connectable=0;strokeColor=inherit;overflow=hidden;fillColor=none;top=0;left=0;bottom=0;right=0;pointerEvents=1;" vertex="1" parent="zcUEx8ZnKFg3kneJtw9s-85">
          <mxGeometry x="320" width="100" height="30" as="geometry">
            <mxRectangle width="100" height="30" as="alternateBounds" />
          </mxGeometry>
        </mxCell>
        <mxCell id="zcUEx8ZnKFg3kneJtw9s-89" value="&lt;div style=&quot;text-align: left;&quot;&gt;&lt;span style=&quot;background-color: initial; font-size: 14px;&quot;&gt;&lt;font color=&quot;#4f4f4f&quot;&gt;Объект, содержащий информацию о товаре&amp;nbsp;&lt;/font&gt;&lt;/span&gt;&lt;/div&gt;" style="shape=partialRectangle;html=1;whiteSpace=wrap;connectable=0;strokeColor=inherit;overflow=hidden;fillColor=none;top=0;left=0;bottom=0;right=0;pointerEvents=1;" vertex="1" parent="zcUEx8ZnKFg3kneJtw9s-85">
          <mxGeometry x="420" width="520" height="30" as="geometry">
            <mxRectangle width="520" height="30" as="alternateBounds" />
          </mxGeometry>
        </mxCell>
        <mxCell id="zcUEx8ZnKFg3kneJtw9s-90" value="&lt;span style=&quot;color: rgb(79, 79, 79); font-size: 14px; text-align: left;&quot;&gt;да&lt;/span&gt;" style="shape=partialRectangle;html=1;whiteSpace=wrap;connectable=0;strokeColor=inherit;overflow=hidden;fillColor=none;top=0;left=0;bottom=0;right=0;pointerEvents=1;" vertex="1" parent="zcUEx8ZnKFg3kneJtw9s-85">
          <mxGeometry x="940" width="150" height="30" as="geometry">
            <mxRectangle width="150" height="30" as="alternateBounds" />
          </mxGeometry>
        </mxCell>
        <mxCell id="zcUEx8ZnKFg3kneJtw9s-91" value="" style="shape=tableRow;horizontal=0;startSize=0;swimlaneHead=0;swimlaneBody=0;strokeColor=inherit;top=0;left=0;bottom=0;right=0;collapsible=0;dropTarget=0;fillColor=none;points=[[0,0.5],[1,0.5]];portConstraint=eastwest;" vertex="1" parent="zcUEx8ZnKFg3kneJtw9s-72">
          <mxGeometry y="90" width="1090" height="30" as="geometry" />
        </mxCell>
        <mxCell id="zcUEx8ZnKFg3kneJtw9s-92" value="&lt;div style=&quot;&quot;&gt;&lt;span style=&quot;background-color: initial; font-size: 14px;&quot;&gt;&lt;font color=&quot;#4f4f4f&quot;&gt;name&amp;nbsp; &amp;nbsp; &amp;nbsp; &amp;nbsp;&amp;nbsp;&lt;/font&gt;&lt;/span&gt;&lt;/div&gt;" style="shape=partialRectangle;html=1;whiteSpace=wrap;connectable=0;strokeColor=inherit;overflow=hidden;fillColor=none;top=0;left=0;bottom=0;right=0;pointerEvents=1;align=right;" vertex="1" parent="zcUEx8ZnKFg3kneJtw9s-91">
          <mxGeometry width="180" height="30" as="geometry">
            <mxRectangle width="180" height="30" as="alternateBounds" />
          </mxGeometry>
        </mxCell>
        <mxCell id="zcUEx8ZnKFg3kneJtw9s-93" value="&lt;span style=&quot;color: rgb(79, 79, 79); font-size: 14px; text-align: left;&quot;&gt;body&lt;/span&gt;" style="shape=partialRectangle;html=1;whiteSpace=wrap;connectable=0;strokeColor=inherit;overflow=hidden;fillColor=none;top=0;left=0;bottom=0;right=0;pointerEvents=1;" vertex="1" parent="zcUEx8ZnKFg3kneJtw9s-91">
          <mxGeometry x="180" width="140" height="30" as="geometry">
            <mxRectangle width="140" height="30" as="alternateBounds" />
          </mxGeometry>
        </mxCell>
        <mxCell id="zcUEx8ZnKFg3kneJtw9s-94" value="&lt;div style=&quot;text-align: left;&quot;&gt;&lt;span style=&quot;background-color: initial; font-size: 14px;&quot;&gt;&lt;font color=&quot;#4f4f4f&quot;&gt;string&lt;/font&gt;&lt;/span&gt;&lt;/div&gt;" style="shape=partialRectangle;html=1;whiteSpace=wrap;connectable=0;strokeColor=inherit;overflow=hidden;fillColor=none;top=0;left=0;bottom=0;right=0;pointerEvents=1;" vertex="1" parent="zcUEx8ZnKFg3kneJtw9s-91">
          <mxGeometry x="320" width="100" height="30" as="geometry">
            <mxRectangle width="100" height="30" as="alternateBounds" />
          </mxGeometry>
        </mxCell>
        <mxCell id="zcUEx8ZnKFg3kneJtw9s-95" value="&lt;div style=&quot;text-align: left;&quot;&gt;&lt;span style=&quot;background-color: initial; font-size: 14px;&quot;&gt;&lt;font color=&quot;#4f4f4f&quot;&gt;Имя товара&lt;/font&gt;&lt;/span&gt;&lt;/div&gt;" style="shape=partialRectangle;html=1;whiteSpace=wrap;connectable=0;strokeColor=inherit;overflow=hidden;fillColor=none;top=0;left=0;bottom=0;right=0;pointerEvents=1;" vertex="1" parent="zcUEx8ZnKFg3kneJtw9s-91">
          <mxGeometry x="420" width="520" height="30" as="geometry">
            <mxRectangle width="520" height="30" as="alternateBounds" />
          </mxGeometry>
        </mxCell>
        <mxCell id="zcUEx8ZnKFg3kneJtw9s-96" value="&lt;span style=&quot;color: rgb(79, 79, 79); font-size: 14px; text-align: left;&quot;&gt;да&lt;/span&gt;" style="shape=partialRectangle;html=1;whiteSpace=wrap;connectable=0;strokeColor=inherit;overflow=hidden;fillColor=none;top=0;left=0;bottom=0;right=0;pointerEvents=1;" vertex="1" parent="zcUEx8ZnKFg3kneJtw9s-91">
          <mxGeometry x="940" width="150" height="30" as="geometry">
            <mxRectangle width="150" height="30" as="alternateBounds" />
          </mxGeometry>
        </mxCell>
        <mxCell id="zcUEx8ZnKFg3kneJtw9s-97" value="" style="shape=tableRow;horizontal=0;startSize=0;swimlaneHead=0;swimlaneBody=0;strokeColor=inherit;top=0;left=0;bottom=0;right=0;collapsible=0;dropTarget=0;fillColor=none;points=[[0,0.5],[1,0.5]];portConstraint=eastwest;" vertex="1" parent="zcUEx8ZnKFg3kneJtw9s-72">
          <mxGeometry y="120" width="1090" height="30" as="geometry" />
        </mxCell>
        <mxCell id="zcUEx8ZnKFg3kneJtw9s-98" value="&lt;div style=&quot;&quot;&gt;&lt;span style=&quot;background-color: initial; font-size: 14px;&quot;&gt;&lt;font color=&quot;#4f4f4f&quot;&gt;description&lt;/font&gt;&lt;/span&gt;&lt;/div&gt;" style="shape=partialRectangle;html=1;whiteSpace=wrap;connectable=0;strokeColor=inherit;overflow=hidden;fillColor=none;top=0;left=0;bottom=0;right=0;pointerEvents=1;align=right;" vertex="1" parent="zcUEx8ZnKFg3kneJtw9s-97">
          <mxGeometry width="180" height="30" as="geometry">
            <mxRectangle width="180" height="30" as="alternateBounds" />
          </mxGeometry>
        </mxCell>
        <mxCell id="zcUEx8ZnKFg3kneJtw9s-99" value="&lt;span style=&quot;color: rgb(79, 79, 79); font-size: 14px; text-align: left;&quot;&gt;body&lt;/span&gt;" style="shape=partialRectangle;html=1;whiteSpace=wrap;connectable=0;strokeColor=inherit;overflow=hidden;fillColor=none;top=0;left=0;bottom=0;right=0;pointerEvents=1;" vertex="1" parent="zcUEx8ZnKFg3kneJtw9s-97">
          <mxGeometry x="180" width="140" height="30" as="geometry">
            <mxRectangle width="140" height="30" as="alternateBounds" />
          </mxGeometry>
        </mxCell>
        <mxCell id="zcUEx8ZnKFg3kneJtw9s-100" value="&lt;div style=&quot;text-align: left;&quot;&gt;&lt;span style=&quot;background-color: initial; font-size: 14px;&quot;&gt;&lt;font color=&quot;#4f4f4f&quot;&gt;text&lt;/font&gt;&lt;/span&gt;&lt;/div&gt;" style="shape=partialRectangle;html=1;whiteSpace=wrap;connectable=0;strokeColor=inherit;overflow=hidden;fillColor=none;top=0;left=0;bottom=0;right=0;pointerEvents=1;" vertex="1" parent="zcUEx8ZnKFg3kneJtw9s-97">
          <mxGeometry x="320" width="100" height="30" as="geometry">
            <mxRectangle width="100" height="30" as="alternateBounds" />
          </mxGeometry>
        </mxCell>
        <mxCell id="zcUEx8ZnKFg3kneJtw9s-101" value="&lt;span style=&quot;color: rgb(79, 79, 79); font-size: 14px; text-align: left;&quot;&gt;Описание товара&lt;/span&gt;" style="shape=partialRectangle;html=1;whiteSpace=wrap;connectable=0;strokeColor=inherit;overflow=hidden;fillColor=none;top=0;left=0;bottom=0;right=0;pointerEvents=1;" vertex="1" parent="zcUEx8ZnKFg3kneJtw9s-97">
          <mxGeometry x="420" width="520" height="30" as="geometry">
            <mxRectangle width="520" height="30" as="alternateBounds" />
          </mxGeometry>
        </mxCell>
        <mxCell id="zcUEx8ZnKFg3kneJtw9s-102" value="&lt;span style=&quot;color: rgb(79, 79, 79); font-size: 14px; text-align: left;&quot;&gt;да&lt;/span&gt;" style="shape=partialRectangle;html=1;whiteSpace=wrap;connectable=0;strokeColor=inherit;overflow=hidden;fillColor=none;top=0;left=0;bottom=0;right=0;pointerEvents=1;" vertex="1" parent="zcUEx8ZnKFg3kneJtw9s-97">
          <mxGeometry x="940" width="150" height="30" as="geometry">
            <mxRectangle width="150" height="30" as="alternateBounds" />
          </mxGeometry>
        </mxCell>
        <mxCell id="zcUEx8ZnKFg3kneJtw9s-105" style="shape=tableRow;horizontal=0;startSize=0;swimlaneHead=0;swimlaneBody=0;strokeColor=inherit;top=0;left=0;bottom=0;right=0;collapsible=0;dropTarget=0;fillColor=none;points=[[0,0.5],[1,0.5]];portConstraint=eastwest;" vertex="1" parent="zcUEx8ZnKFg3kneJtw9s-72">
          <mxGeometry y="150" width="1090" height="30" as="geometry" />
        </mxCell>
        <mxCell id="zcUEx8ZnKFg3kneJtw9s-106" value="&lt;span style=&quot;color: rgb(79, 79, 79); font-size: 14px;&quot;&gt;price&amp;nbsp; &amp;nbsp; &amp;nbsp; &amp;nbsp; &amp;nbsp;&lt;/span&gt;" style="shape=partialRectangle;html=1;whiteSpace=wrap;connectable=0;strokeColor=inherit;overflow=hidden;fillColor=none;top=0;left=0;bottom=0;right=0;pointerEvents=1;align=right;" vertex="1" parent="zcUEx8ZnKFg3kneJtw9s-105">
          <mxGeometry width="180" height="30" as="geometry">
            <mxRectangle width="180" height="30" as="alternateBounds" />
          </mxGeometry>
        </mxCell>
        <mxCell id="zcUEx8ZnKFg3kneJtw9s-107" value="&lt;span style=&quot;color: rgb(79, 79, 79); font-size: 14px; text-align: left;&quot;&gt;body&lt;/span&gt;" style="shape=partialRectangle;html=1;whiteSpace=wrap;connectable=0;strokeColor=inherit;overflow=hidden;fillColor=none;top=0;left=0;bottom=0;right=0;pointerEvents=1;" vertex="1" parent="zcUEx8ZnKFg3kneJtw9s-105">
          <mxGeometry x="180" width="140" height="30" as="geometry">
            <mxRectangle width="140" height="30" as="alternateBounds" />
          </mxGeometry>
        </mxCell>
        <mxCell id="zcUEx8ZnKFg3kneJtw9s-108" value="&lt;span style=&quot;color: rgb(79, 79, 79); font-size: 14px; text-align: left;&quot;&gt;decimal&lt;/span&gt;" style="shape=partialRectangle;html=1;whiteSpace=wrap;connectable=0;strokeColor=inherit;overflow=hidden;fillColor=none;top=0;left=0;bottom=0;right=0;pointerEvents=1;" vertex="1" parent="zcUEx8ZnKFg3kneJtw9s-105">
          <mxGeometry x="320" width="100" height="30" as="geometry">
            <mxRectangle width="100" height="30" as="alternateBounds" />
          </mxGeometry>
        </mxCell>
        <mxCell id="zcUEx8ZnKFg3kneJtw9s-109" value="&lt;div style=&quot;text-align: left;&quot;&gt;&lt;span style=&quot;background-color: initial; font-size: 14px;&quot;&gt;&lt;font color=&quot;#4f4f4f&quot;&gt;Цена товара&lt;/font&gt;&lt;/span&gt;&lt;/div&gt;" style="shape=partialRectangle;html=1;whiteSpace=wrap;connectable=0;strokeColor=inherit;overflow=hidden;fillColor=none;top=0;left=0;bottom=0;right=0;pointerEvents=1;" vertex="1" parent="zcUEx8ZnKFg3kneJtw9s-105">
          <mxGeometry x="420" width="520" height="30" as="geometry">
            <mxRectangle width="520" height="30" as="alternateBounds" />
          </mxGeometry>
        </mxCell>
        <mxCell id="zcUEx8ZnKFg3kneJtw9s-110" value="&lt;span style=&quot;color: rgb(79, 79, 79); font-size: 14px; text-align: left;&quot;&gt;да&lt;/span&gt;" style="shape=partialRectangle;html=1;whiteSpace=wrap;connectable=0;strokeColor=inherit;overflow=hidden;fillColor=none;top=0;left=0;bottom=0;right=0;pointerEvents=1;" vertex="1" parent="zcUEx8ZnKFg3kneJtw9s-105">
          <mxGeometry x="940" width="150" height="30" as="geometry">
            <mxRectangle width="150" height="30" as="alternateBounds" />
          </mxGeometry>
        </mxCell>
        <mxCell id="zcUEx8ZnKFg3kneJtw9s-111" style="shape=tableRow;horizontal=0;startSize=0;swimlaneHead=0;swimlaneBody=0;strokeColor=inherit;top=0;left=0;bottom=0;right=0;collapsible=0;dropTarget=0;fillColor=none;points=[[0,0.5],[1,0.5]];portConstraint=eastwest;" vertex="1" parent="zcUEx8ZnKFg3kneJtw9s-72">
          <mxGeometry y="180" width="1090" height="30" as="geometry" />
        </mxCell>
        <mxCell id="zcUEx8ZnKFg3kneJtw9s-112" value="&lt;span style=&quot;color: rgb(79, 79, 79); font-size: 14px;&quot;&gt;link&amp;nbsp; &amp;nbsp; &amp;nbsp; &amp;nbsp; &amp;nbsp; &amp;nbsp;&amp;nbsp;&lt;/span&gt;" style="shape=partialRectangle;html=1;whiteSpace=wrap;connectable=0;strokeColor=inherit;overflow=hidden;fillColor=none;top=0;left=0;bottom=0;right=0;pointerEvents=1;align=right;" vertex="1" parent="zcUEx8ZnKFg3kneJtw9s-111">
          <mxGeometry width="180" height="30" as="geometry">
            <mxRectangle width="180" height="30" as="alternateBounds" />
          </mxGeometry>
        </mxCell>
        <mxCell id="zcUEx8ZnKFg3kneJtw9s-113" value="&lt;span style=&quot;color: rgb(79, 79, 79); font-size: 14px; text-align: left;&quot;&gt;body&lt;/span&gt;" style="shape=partialRectangle;html=1;whiteSpace=wrap;connectable=0;strokeColor=inherit;overflow=hidden;fillColor=none;top=0;left=0;bottom=0;right=0;pointerEvents=1;" vertex="1" parent="zcUEx8ZnKFg3kneJtw9s-111">
          <mxGeometry x="180" width="140" height="30" as="geometry">
            <mxRectangle width="140" height="30" as="alternateBounds" />
          </mxGeometry>
        </mxCell>
        <mxCell id="zcUEx8ZnKFg3kneJtw9s-114" value="&lt;span style=&quot;color: rgb(79, 79, 79); font-size: 14px; text-align: left;&quot;&gt;string&lt;/span&gt;" style="shape=partialRectangle;html=1;whiteSpace=wrap;connectable=0;strokeColor=inherit;overflow=hidden;fillColor=none;top=0;left=0;bottom=0;right=0;pointerEvents=1;" vertex="1" parent="zcUEx8ZnKFg3kneJtw9s-111">
          <mxGeometry x="320" width="100" height="30" as="geometry">
            <mxRectangle width="100" height="30" as="alternateBounds" />
          </mxGeometry>
        </mxCell>
        <mxCell id="zcUEx8ZnKFg3kneJtw9s-115" value="&lt;span style=&quot;color: rgb(79, 79, 79); font-size: 14px; text-align: left;&quot;&gt;Ссылка на товар&lt;/span&gt;" style="shape=partialRectangle;html=1;whiteSpace=wrap;connectable=0;strokeColor=inherit;overflow=hidden;fillColor=none;top=0;left=0;bottom=0;right=0;pointerEvents=1;" vertex="1" parent="zcUEx8ZnKFg3kneJtw9s-111">
          <mxGeometry x="420" width="520" height="30" as="geometry">
            <mxRectangle width="520" height="30" as="alternateBounds" />
          </mxGeometry>
        </mxCell>
        <mxCell id="zcUEx8ZnKFg3kneJtw9s-116" value="&lt;span style=&quot;color: rgb(79, 79, 79); font-size: 14px; text-align: left;&quot;&gt;да&lt;/span&gt;" style="shape=partialRectangle;html=1;whiteSpace=wrap;connectable=0;strokeColor=inherit;overflow=hidden;fillColor=none;top=0;left=0;bottom=0;right=0;pointerEvents=1;" vertex="1" parent="zcUEx8ZnKFg3kneJtw9s-111">
          <mxGeometry x="940" width="150" height="30" as="geometry">
            <mxRectangle width="150" height="30" as="alternateBounds" />
          </mxGeometry>
        </mxCell>
        <mxCell id="zcUEx8ZnKFg3kneJtw9s-117" style="shape=tableRow;horizontal=0;startSize=0;swimlaneHead=0;swimlaneBody=0;strokeColor=inherit;top=0;left=0;bottom=0;right=0;collapsible=0;dropTarget=0;fillColor=none;points=[[0,0.5],[1,0.5]];portConstraint=eastwest;" vertex="1" parent="zcUEx8ZnKFg3kneJtw9s-72">
          <mxGeometry y="210" width="1090" height="30" as="geometry" />
        </mxCell>
        <mxCell id="zcUEx8ZnKFg3kneJtw9s-118" value="&lt;div style=&quot;text-align: left;&quot;&gt;&lt;span style=&quot;background-color: initial; font-size: 14px;&quot;&gt;&lt;font color=&quot;#4f4f4f&quot;&gt;amount&amp;nbsp; &amp;nbsp; &amp;nbsp;&lt;/font&gt;&lt;/span&gt;&lt;/div&gt;" style="shape=partialRectangle;html=1;whiteSpace=wrap;connectable=0;strokeColor=inherit;overflow=hidden;fillColor=none;top=0;left=0;bottom=0;right=0;pointerEvents=1;align=right;" vertex="1" parent="zcUEx8ZnKFg3kneJtw9s-117">
          <mxGeometry width="180" height="30" as="geometry">
            <mxRectangle width="180" height="30" as="alternateBounds" />
          </mxGeometry>
        </mxCell>
        <mxCell id="zcUEx8ZnKFg3kneJtw9s-119" value="&lt;span style=&quot;color: rgb(79, 79, 79); font-size: 14px; text-align: left;&quot;&gt;body&lt;/span&gt;" style="shape=partialRectangle;html=1;whiteSpace=wrap;connectable=0;strokeColor=inherit;overflow=hidden;fillColor=none;top=0;left=0;bottom=0;right=0;pointerEvents=1;" vertex="1" parent="zcUEx8ZnKFg3kneJtw9s-117">
          <mxGeometry x="180" width="140" height="30" as="geometry">
            <mxRectangle width="140" height="30" as="alternateBounds" />
          </mxGeometry>
        </mxCell>
        <mxCell id="zcUEx8ZnKFg3kneJtw9s-120" value="&lt;span style=&quot;color: rgb(79, 79, 79); font-size: 14px; text-align: left;&quot;&gt;integer&lt;/span&gt;" style="shape=partialRectangle;html=1;whiteSpace=wrap;connectable=0;strokeColor=inherit;overflow=hidden;fillColor=none;top=0;left=0;bottom=0;right=0;pointerEvents=1;" vertex="1" parent="zcUEx8ZnKFg3kneJtw9s-117">
          <mxGeometry x="320" width="100" height="30" as="geometry">
            <mxRectangle width="100" height="30" as="alternateBounds" />
          </mxGeometry>
        </mxCell>
        <mxCell id="zcUEx8ZnKFg3kneJtw9s-121" value="&lt;div style=&quot;text-align: left;&quot;&gt;&lt;span style=&quot;background-color: initial; font-size: 14px;&quot;&gt;&lt;font color=&quot;#4f4f4f&quot;&gt;Количество купленных единиц товара покупателем&lt;/font&gt;&lt;/span&gt;&lt;/div&gt;" style="shape=partialRectangle;html=1;whiteSpace=wrap;connectable=0;strokeColor=inherit;overflow=hidden;fillColor=none;top=0;left=0;bottom=0;right=0;pointerEvents=1;" vertex="1" parent="zcUEx8ZnKFg3kneJtw9s-117">
          <mxGeometry x="420" width="520" height="30" as="geometry">
            <mxRectangle width="520" height="30" as="alternateBounds" />
          </mxGeometry>
        </mxCell>
        <mxCell id="zcUEx8ZnKFg3kneJtw9s-122" value="&lt;span style=&quot;color: rgb(79, 79, 79); font-size: 14px; text-align: left;&quot;&gt;да&lt;/span&gt;" style="shape=partialRectangle;html=1;whiteSpace=wrap;connectable=0;strokeColor=inherit;overflow=hidden;fillColor=none;top=0;left=0;bottom=0;right=0;pointerEvents=1;" vertex="1" parent="zcUEx8ZnKFg3kneJtw9s-117">
          <mxGeometry x="940" width="150" height="30" as="geometry">
            <mxRectangle width="150" height="30" as="alternateBounds" />
          </mxGeometry>
        </mxCell>
        <mxCell id="zcUEx8ZnKFg3kneJtw9s-123" style="shape=tableRow;horizontal=0;startSize=0;swimlaneHead=0;swimlaneBody=0;strokeColor=inherit;top=0;left=0;bottom=0;right=0;collapsible=0;dropTarget=0;fillColor=none;points=[[0,0.5],[1,0.5]];portConstraint=eastwest;" vertex="1" parent="zcUEx8ZnKFg3kneJtw9s-72">
          <mxGeometry y="240" width="1090" height="29" as="geometry" />
        </mxCell>
        <mxCell id="zcUEx8ZnKFg3kneJtw9s-124" value="&lt;div style=&quot;text-align: left;&quot;&gt;&lt;span style=&quot;background-color: initial; font-size: 14px;&quot;&gt;&lt;font color=&quot;#4f4f4f&quot;&gt;date&amp;nbsp; &amp;nbsp; &amp;nbsp; &amp;nbsp; &amp;nbsp;&amp;nbsp;&lt;/font&gt;&lt;/span&gt;&lt;/div&gt;" style="shape=partialRectangle;html=1;whiteSpace=wrap;connectable=0;strokeColor=inherit;overflow=hidden;fillColor=none;top=0;left=0;bottom=0;right=0;pointerEvents=1;align=right;" vertex="1" parent="zcUEx8ZnKFg3kneJtw9s-123">
          <mxGeometry width="180" height="29" as="geometry">
            <mxRectangle width="180" height="29" as="alternateBounds" />
          </mxGeometry>
        </mxCell>
        <mxCell id="zcUEx8ZnKFg3kneJtw9s-125" value="&lt;span style=&quot;color: rgb(79, 79, 79); font-size: 14px; text-align: left;&quot;&gt;body&lt;/span&gt;" style="shape=partialRectangle;html=1;whiteSpace=wrap;connectable=0;strokeColor=inherit;overflow=hidden;fillColor=none;top=0;left=0;bottom=0;right=0;pointerEvents=1;" vertex="1" parent="zcUEx8ZnKFg3kneJtw9s-123">
          <mxGeometry x="180" width="140" height="29" as="geometry">
            <mxRectangle width="140" height="29" as="alternateBounds" />
          </mxGeometry>
        </mxCell>
        <mxCell id="zcUEx8ZnKFg3kneJtw9s-126" value="&lt;span style=&quot;color: rgb(79, 79, 79); font-size: 14px; text-align: left;&quot;&gt;datetime&lt;/span&gt;" style="shape=partialRectangle;html=1;whiteSpace=wrap;connectable=0;strokeColor=inherit;overflow=hidden;fillColor=none;top=0;left=0;bottom=0;right=0;pointerEvents=1;" vertex="1" parent="zcUEx8ZnKFg3kneJtw9s-123">
          <mxGeometry x="320" width="100" height="29" as="geometry">
            <mxRectangle width="100" height="29" as="alternateBounds" />
          </mxGeometry>
        </mxCell>
        <mxCell id="zcUEx8ZnKFg3kneJtw9s-127" value="&lt;span style=&quot;color: rgb(79, 79, 79); font-size: 14px; text-align: left;&quot;&gt;Время последней покупки товара&lt;/span&gt;" style="shape=partialRectangle;html=1;whiteSpace=wrap;connectable=0;strokeColor=inherit;overflow=hidden;fillColor=none;top=0;left=0;bottom=0;right=0;pointerEvents=1;" vertex="1" parent="zcUEx8ZnKFg3kneJtw9s-123">
          <mxGeometry x="420" width="520" height="29" as="geometry">
            <mxRectangle width="520" height="29" as="alternateBounds" />
          </mxGeometry>
        </mxCell>
        <mxCell id="zcUEx8ZnKFg3kneJtw9s-128" value="&lt;span style=&quot;color: rgb(79, 79, 79); font-size: 14px; text-align: left;&quot;&gt;да&lt;/span&gt;" style="shape=partialRectangle;html=1;whiteSpace=wrap;connectable=0;strokeColor=inherit;overflow=hidden;fillColor=none;top=0;left=0;bottom=0;right=0;pointerEvents=1;" vertex="1" parent="zcUEx8ZnKFg3kneJtw9s-123">
          <mxGeometry x="940" width="150" height="29" as="geometry">
            <mxRectangle width="150" height="29" as="alternateBounds" />
          </mxGeometry>
        </mxCell>
        <mxCell id="zcUEx8ZnKFg3kneJtw9s-129" style="shape=tableRow;horizontal=0;startSize=0;swimlaneHead=0;swimlaneBody=0;strokeColor=inherit;top=0;left=0;bottom=0;right=0;collapsible=0;dropTarget=0;fillColor=none;points=[[0,0.5],[1,0.5]];portConstraint=eastwest;" vertex="1" parent="zcUEx8ZnKFg3kneJtw9s-72">
          <mxGeometry y="269" width="1090" height="30" as="geometry" />
        </mxCell>
        <mxCell id="zcUEx8ZnKFg3kneJtw9s-130" value="&lt;span style=&quot;color: rgb(79, 79, 79); font-size: 14px; text-align: left;&quot;&gt;score&amp;nbsp; &amp;nbsp; &amp;nbsp; &amp;nbsp;&amp;nbsp;&lt;/span&gt;" style="shape=partialRectangle;html=1;whiteSpace=wrap;connectable=0;strokeColor=inherit;overflow=hidden;fillColor=none;top=0;left=0;bottom=0;right=0;pointerEvents=1;align=right;" vertex="1" parent="zcUEx8ZnKFg3kneJtw9s-129">
          <mxGeometry width="180" height="30" as="geometry">
            <mxRectangle width="180" height="30" as="alternateBounds" />
          </mxGeometry>
        </mxCell>
        <mxCell id="zcUEx8ZnKFg3kneJtw9s-131" value="&lt;span style=&quot;color: rgb(79, 79, 79); font-size: 14px; text-align: left;&quot;&gt;body&lt;/span&gt;" style="shape=partialRectangle;html=1;whiteSpace=wrap;connectable=0;strokeColor=inherit;overflow=hidden;fillColor=none;top=0;left=0;bottom=0;right=0;pointerEvents=1;" vertex="1" parent="zcUEx8ZnKFg3kneJtw9s-129">
          <mxGeometry x="180" width="140" height="30" as="geometry">
            <mxRectangle width="140" height="30" as="alternateBounds" />
          </mxGeometry>
        </mxCell>
        <mxCell id="zcUEx8ZnKFg3kneJtw9s-132" value="&lt;div style=&quot;text-align: left;&quot;&gt;&lt;span style=&quot;background-color: initial; font-size: 14px;&quot;&gt;&lt;font color=&quot;#4f4f4f&quot;&gt;integer&lt;/font&gt;&lt;/span&gt;&lt;/div&gt;" style="shape=partialRectangle;html=1;whiteSpace=wrap;connectable=0;strokeColor=inherit;overflow=hidden;fillColor=none;top=0;left=0;bottom=0;right=0;pointerEvents=1;" vertex="1" parent="zcUEx8ZnKFg3kneJtw9s-129">
          <mxGeometry x="320" width="100" height="30" as="geometry">
            <mxRectangle width="100" height="30" as="alternateBounds" />
          </mxGeometry>
        </mxCell>
        <mxCell id="zcUEx8ZnKFg3kneJtw9s-133" value="&lt;span style=&quot;color: rgb(79, 79, 79); font-size: 14px; text-align: left;&quot;&gt;Оценка товара покупателем товара (при наличии)&lt;/span&gt;" style="shape=partialRectangle;html=1;whiteSpace=wrap;connectable=0;strokeColor=inherit;overflow=hidden;fillColor=none;top=0;left=0;bottom=0;right=0;pointerEvents=1;" vertex="1" parent="zcUEx8ZnKFg3kneJtw9s-129">
          <mxGeometry x="420" width="520" height="30" as="geometry">
            <mxRectangle width="520" height="30" as="alternateBounds" />
          </mxGeometry>
        </mxCell>
        <mxCell id="zcUEx8ZnKFg3kneJtw9s-134" value="&lt;span style=&quot;color: rgb(79, 79, 79); font-size: 14px; text-align: left;&quot;&gt;да&lt;/span&gt;" style="shape=partialRectangle;html=1;whiteSpace=wrap;connectable=0;strokeColor=inherit;overflow=hidden;fillColor=none;top=0;left=0;bottom=0;right=0;pointerEvents=1;" vertex="1" parent="zcUEx8ZnKFg3kneJtw9s-129">
          <mxGeometry x="940" width="150" height="30" as="geometry">
            <mxRectangle width="150" height="30" as="alternateBounds" />
          </mxGeometry>
        </mxCell>
        <mxCell id="zcUEx8ZnKFg3kneJtw9s-153" style="shape=tableRow;horizontal=0;startSize=0;swimlaneHead=0;swimlaneBody=0;strokeColor=inherit;top=0;left=0;bottom=0;right=0;collapsible=0;dropTarget=0;fillColor=none;points=[[0,0.5],[1,0.5]];portConstraint=eastwest;" vertex="1" parent="zcUEx8ZnKFg3kneJtw9s-72">
          <mxGeometry y="299" width="1090" height="30" as="geometry" />
        </mxCell>
        <mxCell id="zcUEx8ZnKFg3kneJtw9s-154" value="&lt;span style=&quot;color: rgb(79, 79, 79); font-size: 14px;&quot;&gt;favorites&amp;nbsp; &amp;nbsp;&lt;/span&gt;" style="shape=partialRectangle;html=1;whiteSpace=wrap;connectable=0;strokeColor=inherit;overflow=hidden;fillColor=none;top=0;left=0;bottom=0;right=0;pointerEvents=1;align=right;" vertex="1" parent="zcUEx8ZnKFg3kneJtw9s-153">
          <mxGeometry width="180" height="30" as="geometry">
            <mxRectangle width="180" height="30" as="alternateBounds" />
          </mxGeometry>
        </mxCell>
        <mxCell id="zcUEx8ZnKFg3kneJtw9s-155" value="&lt;span style=&quot;color: rgb(79, 79, 79); font-size: 14px; text-align: left;&quot;&gt;body&lt;/span&gt;" style="shape=partialRectangle;html=1;whiteSpace=wrap;connectable=0;strokeColor=inherit;overflow=hidden;fillColor=none;top=0;left=0;bottom=0;right=0;pointerEvents=1;" vertex="1" parent="zcUEx8ZnKFg3kneJtw9s-153">
          <mxGeometry x="180" width="140" height="30" as="geometry">
            <mxRectangle width="140" height="30" as="alternateBounds" />
          </mxGeometry>
        </mxCell>
        <mxCell id="zcUEx8ZnKFg3kneJtw9s-156" value="&lt;span style=&quot;color: rgb(79, 79, 79); font-size: 14px; text-align: left;&quot;&gt;boolean&lt;/span&gt;" style="shape=partialRectangle;html=1;whiteSpace=wrap;connectable=0;strokeColor=inherit;overflow=hidden;fillColor=none;top=0;left=0;bottom=0;right=0;pointerEvents=1;" vertex="1" parent="zcUEx8ZnKFg3kneJtw9s-153">
          <mxGeometry x="320" width="100" height="30" as="geometry">
            <mxRectangle width="100" height="30" as="alternateBounds" />
          </mxGeometry>
        </mxCell>
        <mxCell id="zcUEx8ZnKFg3kneJtw9s-157" value="&lt;div style=&quot;text-align: left;&quot;&gt;&lt;font color=&quot;#4f4f4f&quot;&gt;&lt;span style=&quot;font-size: 14px;&quot;&gt;Статус присутствия товара в &lt;b&gt;Избранном&lt;/b&gt;&lt;/span&gt;&lt;/font&gt;&lt;/div&gt;" style="shape=partialRectangle;html=1;whiteSpace=wrap;connectable=0;strokeColor=inherit;overflow=hidden;fillColor=none;top=0;left=0;bottom=0;right=0;pointerEvents=1;" vertex="1" parent="zcUEx8ZnKFg3kneJtw9s-153">
          <mxGeometry x="420" width="520" height="30" as="geometry">
            <mxRectangle width="520" height="30" as="alternateBounds" />
          </mxGeometry>
        </mxCell>
        <mxCell id="zcUEx8ZnKFg3kneJtw9s-158" value="&lt;span style=&quot;color: rgb(79, 79, 79); font-size: 14px; text-align: left;&quot;&gt;да&lt;/span&gt;" style="shape=partialRectangle;html=1;whiteSpace=wrap;connectable=0;strokeColor=inherit;overflow=hidden;fillColor=none;top=0;left=0;bottom=0;right=0;pointerEvents=1;" vertex="1" parent="zcUEx8ZnKFg3kneJtw9s-153">
          <mxGeometry x="940" width="150" height="30" as="geometry">
            <mxRectangle width="150" height="30" as="alternateBounds" />
          </mxGeometry>
        </mxCell>
        <mxCell id="zcUEx8ZnKFg3kneJtw9s-135" style="shape=tableRow;horizontal=0;startSize=0;swimlaneHead=0;swimlaneBody=0;strokeColor=inherit;top=0;left=0;bottom=0;right=0;collapsible=0;dropTarget=0;fillColor=none;points=[[0,0.5],[1,0.5]];portConstraint=eastwest;" vertex="1" parent="zcUEx8ZnKFg3kneJtw9s-72">
          <mxGeometry y="329" width="1090" height="30" as="geometry" />
        </mxCell>
        <mxCell id="zcUEx8ZnKFg3kneJtw9s-136" value="&lt;span style=&quot;color: rgb(79, 79, 79); font-size: 14px;&quot;&gt;basket&amp;nbsp; &amp;nbsp; &amp;nbsp;&amp;nbsp;&lt;/span&gt;" style="shape=partialRectangle;html=1;whiteSpace=wrap;connectable=0;strokeColor=inherit;overflow=hidden;fillColor=none;top=0;left=0;bottom=0;right=0;pointerEvents=1;align=right;" vertex="1" parent="zcUEx8ZnKFg3kneJtw9s-135">
          <mxGeometry width="180" height="30" as="geometry">
            <mxRectangle width="180" height="30" as="alternateBounds" />
          </mxGeometry>
        </mxCell>
        <mxCell id="zcUEx8ZnKFg3kneJtw9s-137" value="&lt;span style=&quot;color: rgb(79, 79, 79); font-size: 14px; text-align: left;&quot;&gt;body&lt;/span&gt;" style="shape=partialRectangle;html=1;whiteSpace=wrap;connectable=0;strokeColor=inherit;overflow=hidden;fillColor=none;top=0;left=0;bottom=0;right=0;pointerEvents=1;" vertex="1" parent="zcUEx8ZnKFg3kneJtw9s-135">
          <mxGeometry x="180" width="140" height="30" as="geometry">
            <mxRectangle width="140" height="30" as="alternateBounds" />
          </mxGeometry>
        </mxCell>
        <mxCell id="zcUEx8ZnKFg3kneJtw9s-138" value="&lt;span style=&quot;color: rgb(79, 79, 79); font-size: 14px; text-align: left;&quot;&gt;boolean&lt;/span&gt;" style="shape=partialRectangle;html=1;whiteSpace=wrap;connectable=0;strokeColor=inherit;overflow=hidden;fillColor=none;top=0;left=0;bottom=0;right=0;pointerEvents=1;" vertex="1" parent="zcUEx8ZnKFg3kneJtw9s-135">
          <mxGeometry x="320" width="100" height="30" as="geometry">
            <mxRectangle width="100" height="30" as="alternateBounds" />
          </mxGeometry>
        </mxCell>
        <mxCell id="zcUEx8ZnKFg3kneJtw9s-139" value="&lt;span style=&quot;color: rgb(79, 79, 79); font-size: 14px; text-align: left;&quot;&gt;Статус присутствия товара в &lt;b&gt;Корзине&lt;/b&gt;&lt;/span&gt;" style="shape=partialRectangle;html=1;whiteSpace=wrap;connectable=0;strokeColor=inherit;overflow=hidden;fillColor=none;top=0;left=0;bottom=0;right=0;pointerEvents=1;" vertex="1" parent="zcUEx8ZnKFg3kneJtw9s-135">
          <mxGeometry x="420" width="520" height="30" as="geometry">
            <mxRectangle width="520" height="30" as="alternateBounds" />
          </mxGeometry>
        </mxCell>
        <mxCell id="zcUEx8ZnKFg3kneJtw9s-140" value="&lt;span style=&quot;color: rgb(79, 79, 79); font-size: 14px; text-align: left;&quot;&gt;да&lt;/span&gt;" style="shape=partialRectangle;html=1;whiteSpace=wrap;connectable=0;strokeColor=inherit;overflow=hidden;fillColor=none;top=0;left=0;bottom=0;right=0;pointerEvents=1;" vertex="1" parent="zcUEx8ZnKFg3kneJtw9s-135">
          <mxGeometry x="940" width="150" height="30" as="geometry">
            <mxRectangle width="150" height="30" as="alternateBounds" />
          </mxGeometry>
        </mxCell>
        <mxCell id="zcUEx8ZnKFg3kneJtw9s-103" value="&lt;div style=&quot;text-align: left;&quot;&gt;&lt;font color=&quot;#4f4f4f&quot;&gt;&lt;span style=&quot;font-size: 14px;&quot;&gt;&lt;b&gt;Responce&lt;/b&gt;&lt;/span&gt;&lt;/font&gt;&lt;/div&gt;" style="text;html=1;align=center;verticalAlign=middle;whiteSpace=wrap;rounded=0;" vertex="1" parent="1">
          <mxGeometry x="50" y="340" width="80" height="30" as="geometry" />
        </mxCell>
        <mxCell id="zcUEx8ZnKFg3kneJtw9s-104" value="&lt;div style=&quot;text-align: left;&quot;&gt;&lt;span style=&quot;font-size: 14px;&quot;&gt;&lt;b style=&quot;&quot;&gt;&lt;font color=&quot;#007fff&quot;&gt;Успешный ответ на запрос о покупках&lt;/font&gt;&lt;/b&gt;&lt;/span&gt;&lt;/div&gt;" style="text;html=1;align=center;verticalAlign=middle;whiteSpace=wrap;rounded=0;" vertex="1" parent="1">
          <mxGeometry x="50" y="401" width="280" height="30" as="geometry" />
        </mxCell>
        <mxCell id="zcUEx8ZnKFg3kneJtw9s-175" value="&lt;span style=&quot;color: rgb(79, 79, 79); text-align: left;&quot;&gt;&lt;font style=&quot;font-size: 14px;&quot;&gt;&lt;b&gt;POST /&lt;/b&gt;purchases/{customerId}/{productId}&lt;/font&gt;&lt;/span&gt;" style="text;html=1;align=center;verticalAlign=middle;whiteSpace=wrap;rounded=0;" vertex="1" parent="1">
          <mxGeometry x="48" y="900" width="272" height="30" as="geometry" />
        </mxCell>
        <mxCell id="zcUEx8ZnKFg3kneJtw9s-176" value="" style="shape=table;startSize=0;container=1;collapsible=0;childLayout=tableLayout;" vertex="1" parent="1">
          <mxGeometry x="40" y="970" width="1090" height="120" as="geometry" />
        </mxCell>
        <mxCell id="zcUEx8ZnKFg3kneJtw9s-177" value="" style="shape=tableRow;horizontal=0;startSize=0;swimlaneHead=0;swimlaneBody=0;top=0;left=0;bottom=0;right=0;collapsible=0;dropTarget=0;points=[[0,0.5],[1,0.5]];portConstraint=eastwest;fillColor=#eeeeee;strokeColor=#36393d;" vertex="1" parent="zcUEx8ZnKFg3kneJtw9s-176">
          <mxGeometry width="1090" height="30" as="geometry" />
        </mxCell>
        <mxCell id="zcUEx8ZnKFg3kneJtw9s-178" value="&lt;span style=&quot;text-align: left; color: rgb(79, 79, 79);&quot;&gt;&lt;b style=&quot;&quot;&gt;&lt;font style=&quot;font-size: 14px;&quot;&gt;Название параметра&lt;/font&gt;&lt;/b&gt;&lt;/span&gt;" style="shape=partialRectangle;html=1;whiteSpace=wrap;connectable=0;overflow=hidden;top=0;left=0;bottom=0;right=0;pointerEvents=1;fillStyle=auto;fillColor=#eeeeee;strokeColor=#36393d;" vertex="1" parent="zcUEx8ZnKFg3kneJtw9s-177">
          <mxGeometry width="180" height="30" as="geometry">
            <mxRectangle width="180" height="30" as="alternateBounds" />
          </mxGeometry>
        </mxCell>
        <mxCell id="zcUEx8ZnKFg3kneJtw9s-179" value="&lt;div style=&quot;text-align: left;&quot;&gt;&lt;span style=&quot;background-color: initial;&quot;&gt;&lt;font style=&quot;font-size: 14px;&quot; color=&quot;#4f4f4f&quot;&gt;&lt;b style=&quot;&quot;&gt;Принадлежность&lt;/b&gt;&lt;/font&gt;&lt;/span&gt;&lt;/div&gt;" style="shape=partialRectangle;html=1;whiteSpace=wrap;connectable=0;strokeColor=inherit;overflow=hidden;fillColor=none;top=0;left=0;bottom=0;right=0;pointerEvents=1;" vertex="1" parent="zcUEx8ZnKFg3kneJtw9s-177">
          <mxGeometry x="180" width="140" height="30" as="geometry">
            <mxRectangle width="140" height="30" as="alternateBounds" />
          </mxGeometry>
        </mxCell>
        <mxCell id="zcUEx8ZnKFg3kneJtw9s-180" value="&lt;div style=&quot;text-align: left;&quot;&gt;&lt;span style=&quot;background-color: initial;&quot;&gt;&lt;font style=&quot;font-size: 14px;&quot; color=&quot;#4f4f4f&quot;&gt;&lt;b style=&quot;&quot;&gt;Тип данных&amp;nbsp;&lt;/b&gt;&lt;/font&gt;&lt;/span&gt;&lt;/div&gt;" style="shape=partialRectangle;html=1;whiteSpace=wrap;connectable=0;strokeColor=inherit;overflow=hidden;fillColor=none;top=0;left=0;bottom=0;right=0;pointerEvents=1;" vertex="1" parent="zcUEx8ZnKFg3kneJtw9s-177">
          <mxGeometry x="320" width="100" height="30" as="geometry">
            <mxRectangle width="100" height="30" as="alternateBounds" />
          </mxGeometry>
        </mxCell>
        <mxCell id="zcUEx8ZnKFg3kneJtw9s-181" value="&lt;div style=&quot;text-align: left;&quot;&gt;&lt;span style=&quot;background-color: initial;&quot;&gt;&lt;font style=&quot;font-size: 14px;&quot; color=&quot;#4f4f4f&quot;&gt;&lt;b style=&quot;&quot;&gt;Описание&lt;/b&gt;&lt;/font&gt;&lt;/span&gt;&lt;/div&gt;" style="shape=partialRectangle;html=1;whiteSpace=wrap;connectable=0;strokeColor=inherit;overflow=hidden;fillColor=none;top=0;left=0;bottom=0;right=0;pointerEvents=1;" vertex="1" parent="zcUEx8ZnKFg3kneJtw9s-177">
          <mxGeometry x="420" width="520" height="30" as="geometry">
            <mxRectangle width="520" height="30" as="alternateBounds" />
          </mxGeometry>
        </mxCell>
        <mxCell id="zcUEx8ZnKFg3kneJtw9s-182" value="&lt;b style=&quot;color: rgb(79, 79, 79); text-align: left;&quot;&gt;&lt;font style=&quot;font-size: 14px;&quot;&gt;Обязательность&lt;/font&gt;&lt;/b&gt;" style="shape=partialRectangle;html=1;whiteSpace=wrap;connectable=0;strokeColor=inherit;overflow=hidden;fillColor=none;top=0;left=0;bottom=0;right=0;pointerEvents=1;" vertex="1" parent="zcUEx8ZnKFg3kneJtw9s-177">
          <mxGeometry x="940" width="150" height="30" as="geometry">
            <mxRectangle width="150" height="30" as="alternateBounds" />
          </mxGeometry>
        </mxCell>
        <mxCell id="zcUEx8ZnKFg3kneJtw9s-183" value="" style="shape=tableRow;horizontal=0;startSize=0;swimlaneHead=0;swimlaneBody=0;strokeColor=inherit;top=0;left=0;bottom=0;right=0;collapsible=0;dropTarget=0;fillColor=none;points=[[0,0.5],[1,0.5]];portConstraint=eastwest;" vertex="1" parent="zcUEx8ZnKFg3kneJtw9s-176">
          <mxGeometry y="30" width="1090" height="30" as="geometry" />
        </mxCell>
        <mxCell id="zcUEx8ZnKFg3kneJtw9s-184" value="&lt;div style=&quot;&quot;&gt;&lt;span style=&quot;background-color: initial; font-size: 14px;&quot;&gt;&lt;font color=&quot;#4f4f4f&quot;&gt;&amp;nbsp; &amp;nbsp;customerId&lt;/font&gt;&lt;/span&gt;&lt;/div&gt;" style="shape=partialRectangle;html=1;whiteSpace=wrap;connectable=0;strokeColor=inherit;overflow=hidden;fillColor=none;top=0;left=0;bottom=0;right=0;pointerEvents=1;align=left;" vertex="1" parent="zcUEx8ZnKFg3kneJtw9s-183">
          <mxGeometry width="180" height="30" as="geometry">
            <mxRectangle width="180" height="30" as="alternateBounds" />
          </mxGeometry>
        </mxCell>
        <mxCell id="zcUEx8ZnKFg3kneJtw9s-185" value="&lt;div style=&quot;text-align: left;&quot;&gt;&lt;span style=&quot;color: rgb(79, 79, 79); font-size: 14px;&quot;&gt;path&lt;/span&gt;&lt;br&gt;&lt;/div&gt;" style="shape=partialRectangle;html=1;whiteSpace=wrap;connectable=0;strokeColor=inherit;overflow=hidden;fillColor=none;top=0;left=0;bottom=0;right=0;pointerEvents=1;" vertex="1" parent="zcUEx8ZnKFg3kneJtw9s-183">
          <mxGeometry x="180" width="140" height="30" as="geometry">
            <mxRectangle width="140" height="30" as="alternateBounds" />
          </mxGeometry>
        </mxCell>
        <mxCell id="zcUEx8ZnKFg3kneJtw9s-186" value="&lt;div style=&quot;text-align: left;&quot;&gt;&lt;span style=&quot;background-color: initial; font-size: 14px;&quot;&gt;&lt;font color=&quot;#4f4f4f&quot;&gt;integer&lt;/font&gt;&lt;/span&gt;&lt;/div&gt;" style="shape=partialRectangle;html=1;whiteSpace=wrap;connectable=0;strokeColor=inherit;overflow=hidden;fillColor=none;top=0;left=0;bottom=0;right=0;pointerEvents=1;" vertex="1" parent="zcUEx8ZnKFg3kneJtw9s-183">
          <mxGeometry x="320" width="100" height="30" as="geometry">
            <mxRectangle width="100" height="30" as="alternateBounds" />
          </mxGeometry>
        </mxCell>
        <mxCell id="zcUEx8ZnKFg3kneJtw9s-187" value="&lt;div style=&quot;text-align: left;&quot;&gt;&lt;span style=&quot;background-color: initial; font-size: 14px;&quot;&gt;&lt;font color=&quot;#4f4f4f&quot;&gt;Уникальный идентификатор покупателя&lt;/font&gt;&lt;/span&gt;&lt;/div&gt;" style="shape=partialRectangle;html=1;whiteSpace=wrap;connectable=0;strokeColor=inherit;overflow=hidden;fillColor=none;top=0;left=0;bottom=0;right=0;pointerEvents=1;" vertex="1" parent="zcUEx8ZnKFg3kneJtw9s-183">
          <mxGeometry x="420" width="520" height="30" as="geometry">
            <mxRectangle width="520" height="30" as="alternateBounds" />
          </mxGeometry>
        </mxCell>
        <mxCell id="zcUEx8ZnKFg3kneJtw9s-188" value="&lt;div style=&quot;text-align: left;&quot;&gt;&lt;span style=&quot;background-color: initial; font-size: 14px;&quot;&gt;&lt;font color=&quot;#4f4f4f&quot;&gt;да&lt;/font&gt;&lt;/span&gt;&lt;/div&gt;" style="shape=partialRectangle;html=1;whiteSpace=wrap;connectable=0;strokeColor=inherit;overflow=hidden;fillColor=none;top=0;left=0;bottom=0;right=0;pointerEvents=1;" vertex="1" parent="zcUEx8ZnKFg3kneJtw9s-183">
          <mxGeometry x="940" width="150" height="30" as="geometry">
            <mxRectangle width="150" height="30" as="alternateBounds" />
          </mxGeometry>
        </mxCell>
        <mxCell id="zcUEx8ZnKFg3kneJtw9s-191" style="shape=tableRow;horizontal=0;startSize=0;swimlaneHead=0;swimlaneBody=0;strokeColor=inherit;top=0;left=0;bottom=0;right=0;collapsible=0;dropTarget=0;fillColor=none;points=[[0,0.5],[1,0.5]];portConstraint=eastwest;" vertex="1" parent="zcUEx8ZnKFg3kneJtw9s-176">
          <mxGeometry y="60" width="1090" height="30" as="geometry" />
        </mxCell>
        <mxCell id="zcUEx8ZnKFg3kneJtw9s-192" value="&lt;span style=&quot;color: rgb(79, 79, 79); font-size: 14px;&quot;&gt;&amp;nbsp; &amp;nbsp;productId&lt;/span&gt;" style="shape=partialRectangle;html=1;whiteSpace=wrap;connectable=0;strokeColor=inherit;overflow=hidden;fillColor=none;top=0;left=0;bottom=0;right=0;pointerEvents=1;align=left;" vertex="1" parent="zcUEx8ZnKFg3kneJtw9s-191">
          <mxGeometry width="180" height="30" as="geometry">
            <mxRectangle width="180" height="30" as="alternateBounds" />
          </mxGeometry>
        </mxCell>
        <mxCell id="zcUEx8ZnKFg3kneJtw9s-193" value="&lt;span style=&quot;color: rgb(79, 79, 79); font-size: 14px; text-align: left;&quot;&gt;path&lt;/span&gt;" style="shape=partialRectangle;html=1;whiteSpace=wrap;connectable=0;strokeColor=inherit;overflow=hidden;fillColor=none;top=0;left=0;bottom=0;right=0;pointerEvents=1;" vertex="1" parent="zcUEx8ZnKFg3kneJtw9s-191">
          <mxGeometry x="180" width="140" height="30" as="geometry">
            <mxRectangle width="140" height="30" as="alternateBounds" />
          </mxGeometry>
        </mxCell>
        <mxCell id="zcUEx8ZnKFg3kneJtw9s-194" value="&lt;span style=&quot;color: rgb(79, 79, 79); font-size: 14px; text-align: left;&quot;&gt;integer&lt;/span&gt;" style="shape=partialRectangle;html=1;whiteSpace=wrap;connectable=0;strokeColor=inherit;overflow=hidden;fillColor=none;top=0;left=0;bottom=0;right=0;pointerEvents=1;" vertex="1" parent="zcUEx8ZnKFg3kneJtw9s-191">
          <mxGeometry x="320" width="100" height="30" as="geometry">
            <mxRectangle width="100" height="30" as="alternateBounds" />
          </mxGeometry>
        </mxCell>
        <mxCell id="zcUEx8ZnKFg3kneJtw9s-195" value="&lt;span style=&quot;color: rgb(79, 79, 79); font-size: 14px; text-align: left;&quot;&gt;Уникальный идентификатор товара&lt;/span&gt;" style="shape=partialRectangle;html=1;whiteSpace=wrap;connectable=0;strokeColor=inherit;overflow=hidden;fillColor=none;top=0;left=0;bottom=0;right=0;pointerEvents=1;" vertex="1" parent="zcUEx8ZnKFg3kneJtw9s-191">
          <mxGeometry x="420" width="520" height="30" as="geometry">
            <mxRectangle width="520" height="30" as="alternateBounds" />
          </mxGeometry>
        </mxCell>
        <mxCell id="zcUEx8ZnKFg3kneJtw9s-196" value="&lt;span style=&quot;color: rgb(79, 79, 79); font-size: 14px; text-align: left;&quot;&gt;да&lt;/span&gt;" style="shape=partialRectangle;html=1;whiteSpace=wrap;connectable=0;strokeColor=inherit;overflow=hidden;fillColor=none;top=0;left=0;bottom=0;right=0;pointerEvents=1;" vertex="1" parent="zcUEx8ZnKFg3kneJtw9s-191">
          <mxGeometry x="940" width="150" height="30" as="geometry">
            <mxRectangle width="150" height="30" as="alternateBounds" />
          </mxGeometry>
        </mxCell>
        <mxCell id="zcUEx8ZnKFg3kneJtw9s-197" style="shape=tableRow;horizontal=0;startSize=0;swimlaneHead=0;swimlaneBody=0;strokeColor=inherit;top=0;left=0;bottom=0;right=0;collapsible=0;dropTarget=0;fillColor=none;points=[[0,0.5],[1,0.5]];portConstraint=eastwest;" vertex="1" parent="zcUEx8ZnKFg3kneJtw9s-176">
          <mxGeometry y="90" width="1090" height="30" as="geometry" />
        </mxCell>
        <mxCell id="zcUEx8ZnKFg3kneJtw9s-198" value="&lt;span style=&quot;color: rgb(79, 79, 79); font-size: 14px;&quot;&gt;&amp;nbsp; &amp;nbsp;score&lt;/span&gt;" style="shape=partialRectangle;html=1;whiteSpace=wrap;connectable=0;strokeColor=inherit;overflow=hidden;fillColor=none;top=0;left=0;bottom=0;right=0;pointerEvents=1;align=left;" vertex="1" parent="zcUEx8ZnKFg3kneJtw9s-197">
          <mxGeometry width="180" height="30" as="geometry">
            <mxRectangle width="180" height="30" as="alternateBounds" />
          </mxGeometry>
        </mxCell>
        <mxCell id="zcUEx8ZnKFg3kneJtw9s-199" value="&lt;span style=&quot;color: rgb(79, 79, 79); font-size: 14px; text-align: left;&quot;&gt;query&lt;/span&gt;" style="shape=partialRectangle;html=1;whiteSpace=wrap;connectable=0;strokeColor=inherit;overflow=hidden;fillColor=none;top=0;left=0;bottom=0;right=0;pointerEvents=1;" vertex="1" parent="zcUEx8ZnKFg3kneJtw9s-197">
          <mxGeometry x="180" width="140" height="30" as="geometry">
            <mxRectangle width="140" height="30" as="alternateBounds" />
          </mxGeometry>
        </mxCell>
        <mxCell id="zcUEx8ZnKFg3kneJtw9s-200" value="&lt;div style=&quot;text-align: left;&quot;&gt;&lt;span style=&quot;background-color: initial; font-size: 14px;&quot;&gt;&lt;font color=&quot;#4f4f4f&quot;&gt;integer&lt;/font&gt;&lt;/span&gt;&lt;/div&gt;" style="shape=partialRectangle;html=1;whiteSpace=wrap;connectable=0;strokeColor=inherit;overflow=hidden;fillColor=none;top=0;left=0;bottom=0;right=0;pointerEvents=1;" vertex="1" parent="zcUEx8ZnKFg3kneJtw9s-197">
          <mxGeometry x="320" width="100" height="30" as="geometry">
            <mxRectangle width="100" height="30" as="alternateBounds" />
          </mxGeometry>
        </mxCell>
        <mxCell id="zcUEx8ZnKFg3kneJtw9s-201" value="&lt;span style=&quot;color: rgb(79, 79, 79); font-size: 14px; text-align: left;&quot;&gt;Оценка товара покупателем (1/2/3/4/5)&lt;/span&gt;" style="shape=partialRectangle;html=1;whiteSpace=wrap;connectable=0;strokeColor=inherit;overflow=hidden;fillColor=none;top=0;left=0;bottom=0;right=0;pointerEvents=1;" vertex="1" parent="zcUEx8ZnKFg3kneJtw9s-197">
          <mxGeometry x="420" width="520" height="30" as="geometry">
            <mxRectangle width="520" height="30" as="alternateBounds" />
          </mxGeometry>
        </mxCell>
        <mxCell id="zcUEx8ZnKFg3kneJtw9s-202" value="&lt;span style=&quot;color: rgb(79, 79, 79); font-size: 14px; text-align: left;&quot;&gt;да&lt;/span&gt;" style="shape=partialRectangle;html=1;whiteSpace=wrap;connectable=0;strokeColor=inherit;overflow=hidden;fillColor=none;top=0;left=0;bottom=0;right=0;pointerEvents=1;" vertex="1" parent="zcUEx8ZnKFg3kneJtw9s-197">
          <mxGeometry x="940" width="150" height="30" as="geometry">
            <mxRectangle width="150" height="30" as="alternateBounds" />
          </mxGeometry>
        </mxCell>
        <mxCell id="zcUEx8ZnKFg3kneJtw9s-189" value="&lt;div style=&quot;text-align: left;&quot;&gt;&lt;font color=&quot;#4f4f4f&quot;&gt;&lt;span style=&quot;font-size: 14px;&quot;&gt;&lt;b&gt;Request&lt;/b&gt;&lt;/span&gt;&lt;/font&gt;&lt;/div&gt;" style="text;html=1;align=center;verticalAlign=middle;whiteSpace=wrap;rounded=0;" vertex="1" parent="1">
          <mxGeometry x="45" y="870" width="70" height="30" as="geometry" />
        </mxCell>
        <mxCell id="zcUEx8ZnKFg3kneJtw9s-190" value="&lt;div style=&quot;text-align: left;&quot;&gt;&lt;font color=&quot;#007fff&quot;&gt;&lt;span style=&quot;font-size: 14px;&quot;&gt;&lt;b&gt;Сохранение оценки товара покупателем&lt;/b&gt;&lt;/span&gt;&lt;/font&gt;&lt;/div&gt;" style="text;html=1;align=center;verticalAlign=middle;whiteSpace=wrap;rounded=0;" vertex="1" parent="1">
          <mxGeometry x="48" y="930" width="292" height="30" as="geometry" />
        </mxCell>
        <mxCell id="zcUEx8ZnKFg3kneJtw9s-203" value="&lt;div style=&quot;text-align: left;&quot;&gt;&lt;span style=&quot;background-color: initial; font-size: 14px;&quot;&gt;&lt;font color=&quot;#4f4f4f&quot;&gt;&lt;b&gt;Code:&lt;/b&gt; 201&lt;/font&gt;&lt;/span&gt;&lt;/div&gt;" style="text;html=1;align=center;verticalAlign=middle;whiteSpace=wrap;rounded=0;" vertex="1" parent="1">
          <mxGeometry x="50" y="1151" width="80" height="30" as="geometry" />
        </mxCell>
        <mxCell id="zcUEx8ZnKFg3kneJtw9s-204" value="" style="shape=table;startSize=0;container=1;collapsible=0;childLayout=tableLayout;" vertex="1" parent="1">
          <mxGeometry x="40" y="1221" width="1090" height="120" as="geometry" />
        </mxCell>
        <mxCell id="zcUEx8ZnKFg3kneJtw9s-205" value="" style="shape=tableRow;horizontal=0;startSize=0;swimlaneHead=0;swimlaneBody=0;strokeColor=#36393d;top=0;left=0;bottom=0;right=0;collapsible=0;dropTarget=0;fillColor=#eeeeee;points=[[0,0.5],[1,0.5]];portConstraint=eastwest;" vertex="1" parent="zcUEx8ZnKFg3kneJtw9s-204">
          <mxGeometry width="1090" height="30" as="geometry" />
        </mxCell>
        <mxCell id="zcUEx8ZnKFg3kneJtw9s-206" value="&lt;span style=&quot;text-align: left; color: rgb(79, 79, 79);&quot;&gt;&lt;b style=&quot;&quot;&gt;&lt;font style=&quot;font-size: 14px;&quot;&gt;Название параметра&lt;/font&gt;&lt;/b&gt;&lt;/span&gt;" style="shape=partialRectangle;html=1;whiteSpace=wrap;connectable=0;overflow=hidden;top=0;left=0;bottom=0;right=0;pointerEvents=1;fillColor=#eeeeee;strokeColor=#36393d;" vertex="1" parent="zcUEx8ZnKFg3kneJtw9s-205">
          <mxGeometry width="180" height="30" as="geometry">
            <mxRectangle width="180" height="30" as="alternateBounds" />
          </mxGeometry>
        </mxCell>
        <mxCell id="zcUEx8ZnKFg3kneJtw9s-207" value="&lt;div style=&quot;text-align: left;&quot;&gt;&lt;span style=&quot;background-color: initial;&quot;&gt;&lt;font style=&quot;font-size: 14px;&quot; color=&quot;#4f4f4f&quot;&gt;&lt;b style=&quot;&quot;&gt;Принадлежность&lt;/b&gt;&lt;/font&gt;&lt;/span&gt;&lt;/div&gt;" style="shape=partialRectangle;html=1;whiteSpace=wrap;connectable=0;strokeColor=inherit;overflow=hidden;fillColor=none;top=0;left=0;bottom=0;right=0;pointerEvents=1;" vertex="1" parent="zcUEx8ZnKFg3kneJtw9s-205">
          <mxGeometry x="180" width="140" height="30" as="geometry">
            <mxRectangle width="140" height="30" as="alternateBounds" />
          </mxGeometry>
        </mxCell>
        <mxCell id="zcUEx8ZnKFg3kneJtw9s-208" value="&lt;div style=&quot;text-align: left;&quot;&gt;&lt;span style=&quot;background-color: initial;&quot;&gt;&lt;font style=&quot;font-size: 14px;&quot; color=&quot;#4f4f4f&quot;&gt;&lt;b style=&quot;&quot;&gt;Тип данных&amp;nbsp;&lt;/b&gt;&lt;/font&gt;&lt;/span&gt;&lt;/div&gt;" style="shape=partialRectangle;html=1;whiteSpace=wrap;connectable=0;strokeColor=inherit;overflow=hidden;fillColor=none;top=0;left=0;bottom=0;right=0;pointerEvents=1;" vertex="1" parent="zcUEx8ZnKFg3kneJtw9s-205">
          <mxGeometry x="320" width="100" height="30" as="geometry">
            <mxRectangle width="100" height="30" as="alternateBounds" />
          </mxGeometry>
        </mxCell>
        <mxCell id="zcUEx8ZnKFg3kneJtw9s-209" value="&lt;div style=&quot;text-align: left;&quot;&gt;&lt;span style=&quot;background-color: initial;&quot;&gt;&lt;font style=&quot;font-size: 14px;&quot; color=&quot;#4f4f4f&quot;&gt;&lt;b style=&quot;&quot;&gt;Описание&lt;/b&gt;&lt;/font&gt;&lt;/span&gt;&lt;/div&gt;" style="shape=partialRectangle;html=1;whiteSpace=wrap;connectable=0;strokeColor=inherit;overflow=hidden;fillColor=none;top=0;left=0;bottom=0;right=0;pointerEvents=1;" vertex="1" parent="zcUEx8ZnKFg3kneJtw9s-205">
          <mxGeometry x="420" width="520" height="30" as="geometry">
            <mxRectangle width="520" height="30" as="alternateBounds" />
          </mxGeometry>
        </mxCell>
        <mxCell id="zcUEx8ZnKFg3kneJtw9s-210" value="&lt;b style=&quot;color: rgb(79, 79, 79); text-align: left;&quot;&gt;&lt;font style=&quot;font-size: 14px;&quot;&gt;Обязательность&lt;/font&gt;&lt;/b&gt;" style="shape=partialRectangle;html=1;whiteSpace=wrap;connectable=0;strokeColor=inherit;overflow=hidden;fillColor=none;top=0;left=0;bottom=0;right=0;pointerEvents=1;" vertex="1" parent="zcUEx8ZnKFg3kneJtw9s-205">
          <mxGeometry x="940" width="150" height="30" as="geometry">
            <mxRectangle width="150" height="30" as="alternateBounds" />
          </mxGeometry>
        </mxCell>
        <mxCell id="zcUEx8ZnKFg3kneJtw9s-211" value="" style="shape=tableRow;horizontal=0;startSize=0;swimlaneHead=0;swimlaneBody=0;strokeColor=inherit;top=0;left=0;bottom=0;right=0;collapsible=0;dropTarget=0;fillColor=none;points=[[0,0.5],[1,0.5]];portConstraint=eastwest;" vertex="1" parent="zcUEx8ZnKFg3kneJtw9s-204">
          <mxGeometry y="30" width="1090" height="30" as="geometry" />
        </mxCell>
        <mxCell id="zcUEx8ZnKFg3kneJtw9s-212" value="&lt;div style=&quot;&quot;&gt;&lt;span style=&quot;background-color: initial; font-size: 14px;&quot;&gt;&lt;font color=&quot;#4f4f4f&quot;&gt;&amp;nbsp; &amp;nbsp;status&lt;/font&gt;&lt;/span&gt;&lt;/div&gt;" style="shape=partialRectangle;html=1;whiteSpace=wrap;connectable=0;strokeColor=inherit;overflow=hidden;fillColor=none;top=0;left=0;bottom=0;right=0;pointerEvents=1;align=left;" vertex="1" parent="zcUEx8ZnKFg3kneJtw9s-211">
          <mxGeometry width="180" height="30" as="geometry">
            <mxRectangle width="180" height="30" as="alternateBounds" />
          </mxGeometry>
        </mxCell>
        <mxCell id="zcUEx8ZnKFg3kneJtw9s-213" value="&lt;div style=&quot;text-align: left;&quot;&gt;&lt;font color=&quot;#4f4f4f&quot;&gt;&lt;span style=&quot;font-size: 14px;&quot;&gt;body&lt;/span&gt;&lt;/font&gt;&lt;/div&gt;" style="shape=partialRectangle;html=1;whiteSpace=wrap;connectable=0;strokeColor=inherit;overflow=hidden;fillColor=none;top=0;left=0;bottom=0;right=0;pointerEvents=1;" vertex="1" parent="zcUEx8ZnKFg3kneJtw9s-211">
          <mxGeometry x="180" width="140" height="30" as="geometry">
            <mxRectangle width="140" height="30" as="alternateBounds" />
          </mxGeometry>
        </mxCell>
        <mxCell id="zcUEx8ZnKFg3kneJtw9s-214" value="&lt;div style=&quot;text-align: left;&quot;&gt;&lt;span style=&quot;color: rgb(79, 79, 79); font-size: 14px;&quot;&gt;object&lt;/span&gt;&lt;br&gt;&lt;/div&gt;" style="shape=partialRectangle;html=1;whiteSpace=wrap;connectable=0;strokeColor=inherit;overflow=hidden;fillColor=none;top=0;left=0;bottom=0;right=0;pointerEvents=1;" vertex="1" parent="zcUEx8ZnKFg3kneJtw9s-211">
          <mxGeometry x="320" width="100" height="30" as="geometry">
            <mxRectangle width="100" height="30" as="alternateBounds" />
          </mxGeometry>
        </mxCell>
        <mxCell id="zcUEx8ZnKFg3kneJtw9s-215" value="&lt;font color=&quot;#4f4f4f&quot;&gt;&lt;span style=&quot;font-size: 14px;&quot;&gt;Объект, содержащий информацию о статусе ответа&amp;nbsp;&lt;/span&gt;&lt;/font&gt;" style="shape=partialRectangle;html=1;whiteSpace=wrap;connectable=0;strokeColor=inherit;overflow=hidden;fillColor=none;top=0;left=0;bottom=0;right=0;pointerEvents=1;" vertex="1" parent="zcUEx8ZnKFg3kneJtw9s-211">
          <mxGeometry x="420" width="520" height="30" as="geometry">
            <mxRectangle width="520" height="30" as="alternateBounds" />
          </mxGeometry>
        </mxCell>
        <mxCell id="zcUEx8ZnKFg3kneJtw9s-216" value="&lt;div style=&quot;text-align: left;&quot;&gt;&lt;span style=&quot;background-color: initial; font-size: 14px;&quot;&gt;&lt;font color=&quot;#4f4f4f&quot;&gt;да&lt;/font&gt;&lt;/span&gt;&lt;/div&gt;" style="shape=partialRectangle;html=1;whiteSpace=wrap;connectable=0;strokeColor=inherit;overflow=hidden;fillColor=none;top=0;left=0;bottom=0;right=0;pointerEvents=1;" vertex="1" parent="zcUEx8ZnKFg3kneJtw9s-211">
          <mxGeometry x="940" width="150" height="30" as="geometry">
            <mxRectangle width="150" height="30" as="alternateBounds" />
          </mxGeometry>
        </mxCell>
        <mxCell id="zcUEx8ZnKFg3kneJtw9s-217" value="" style="shape=tableRow;horizontal=0;startSize=0;swimlaneHead=0;swimlaneBody=0;strokeColor=inherit;top=0;left=0;bottom=0;right=0;collapsible=0;dropTarget=0;fillColor=none;points=[[0,0.5],[1,0.5]];portConstraint=eastwest;" vertex="1" parent="zcUEx8ZnKFg3kneJtw9s-204">
          <mxGeometry y="60" width="1090" height="30" as="geometry" />
        </mxCell>
        <mxCell id="zcUEx8ZnKFg3kneJtw9s-218" value="&lt;span style=&quot;color: rgb(79, 79, 79); font-size: 14px; text-align: left;&quot;&gt;code&lt;/span&gt;" style="shape=partialRectangle;html=1;whiteSpace=wrap;connectable=0;strokeColor=inherit;overflow=hidden;fillColor=none;top=0;left=0;bottom=0;right=0;pointerEvents=1;" vertex="1" parent="zcUEx8ZnKFg3kneJtw9s-217">
          <mxGeometry width="180" height="30" as="geometry">
            <mxRectangle width="180" height="30" as="alternateBounds" />
          </mxGeometry>
        </mxCell>
        <mxCell id="zcUEx8ZnKFg3kneJtw9s-219" value="&lt;span style=&quot;color: rgb(79, 79, 79); font-size: 14px; text-align: left;&quot;&gt;body&lt;/span&gt;" style="shape=partialRectangle;html=1;whiteSpace=wrap;connectable=0;strokeColor=inherit;overflow=hidden;fillColor=none;top=0;left=0;bottom=0;right=0;pointerEvents=1;" vertex="1" parent="zcUEx8ZnKFg3kneJtw9s-217">
          <mxGeometry x="180" width="140" height="30" as="geometry">
            <mxRectangle width="140" height="30" as="alternateBounds" />
          </mxGeometry>
        </mxCell>
        <mxCell id="zcUEx8ZnKFg3kneJtw9s-220" value="&lt;div style=&quot;text-align: left;&quot;&gt;&lt;span style=&quot;color: rgb(79, 79, 79); font-size: 14px;&quot;&gt;integer&lt;/span&gt;&lt;br&gt;&lt;/div&gt;" style="shape=partialRectangle;html=1;whiteSpace=wrap;connectable=0;strokeColor=inherit;overflow=hidden;fillColor=none;top=0;left=0;bottom=0;right=0;pointerEvents=1;" vertex="1" parent="zcUEx8ZnKFg3kneJtw9s-217">
          <mxGeometry x="320" width="100" height="30" as="geometry">
            <mxRectangle width="100" height="30" as="alternateBounds" />
          </mxGeometry>
        </mxCell>
        <mxCell id="zcUEx8ZnKFg3kneJtw9s-221" value="&lt;div style=&quot;text-align: left;&quot;&gt;&lt;span style=&quot;background-color: initial; font-size: 14px;&quot;&gt;&lt;font color=&quot;#4f4f4f&quot;&gt;Код состояния&lt;/font&gt;&lt;/span&gt;&lt;/div&gt;" style="shape=partialRectangle;html=1;whiteSpace=wrap;connectable=0;strokeColor=inherit;overflow=hidden;fillColor=none;top=0;left=0;bottom=0;right=0;pointerEvents=1;" vertex="1" parent="zcUEx8ZnKFg3kneJtw9s-217">
          <mxGeometry x="420" width="520" height="30" as="geometry">
            <mxRectangle width="520" height="30" as="alternateBounds" />
          </mxGeometry>
        </mxCell>
        <mxCell id="zcUEx8ZnKFg3kneJtw9s-222" value="&lt;span style=&quot;color: rgb(79, 79, 79); font-size: 14px; text-align: left;&quot;&gt;да&lt;/span&gt;" style="shape=partialRectangle;html=1;whiteSpace=wrap;connectable=0;strokeColor=inherit;overflow=hidden;fillColor=none;top=0;left=0;bottom=0;right=0;pointerEvents=1;" vertex="1" parent="zcUEx8ZnKFg3kneJtw9s-217">
          <mxGeometry x="940" width="150" height="30" as="geometry">
            <mxRectangle width="150" height="30" as="alternateBounds" />
          </mxGeometry>
        </mxCell>
        <mxCell id="zcUEx8ZnKFg3kneJtw9s-223" value="" style="shape=tableRow;horizontal=0;startSize=0;swimlaneHead=0;swimlaneBody=0;strokeColor=inherit;top=0;left=0;bottom=0;right=0;collapsible=0;dropTarget=0;fillColor=none;points=[[0,0.5],[1,0.5]];portConstraint=eastwest;" vertex="1" parent="zcUEx8ZnKFg3kneJtw9s-204">
          <mxGeometry y="90" width="1090" height="30" as="geometry" />
        </mxCell>
        <mxCell id="zcUEx8ZnKFg3kneJtw9s-224" value="&lt;div style=&quot;&quot;&gt;&lt;span style=&quot;background-color: initial; font-size: 14px;&quot;&gt;&lt;font color=&quot;#4f4f4f&quot;&gt;&amp;nbsp; &amp;nbsp; &amp;nbsp; &amp;nbsp; &amp;nbsp;description&lt;/font&gt;&lt;/span&gt;&lt;/div&gt;" style="shape=partialRectangle;html=1;whiteSpace=wrap;connectable=0;strokeColor=inherit;overflow=hidden;fillColor=none;top=0;left=0;bottom=0;right=0;pointerEvents=1;align=center;" vertex="1" parent="zcUEx8ZnKFg3kneJtw9s-223">
          <mxGeometry width="180" height="30" as="geometry">
            <mxRectangle width="180" height="30" as="alternateBounds" />
          </mxGeometry>
        </mxCell>
        <mxCell id="zcUEx8ZnKFg3kneJtw9s-225" value="&lt;span style=&quot;color: rgb(79, 79, 79); font-size: 14px; text-align: left;&quot;&gt;body&lt;/span&gt;" style="shape=partialRectangle;html=1;whiteSpace=wrap;connectable=0;strokeColor=inherit;overflow=hidden;fillColor=none;top=0;left=0;bottom=0;right=0;pointerEvents=1;" vertex="1" parent="zcUEx8ZnKFg3kneJtw9s-223">
          <mxGeometry x="180" width="140" height="30" as="geometry">
            <mxRectangle width="140" height="30" as="alternateBounds" />
          </mxGeometry>
        </mxCell>
        <mxCell id="zcUEx8ZnKFg3kneJtw9s-226" value="&lt;div style=&quot;text-align: left;&quot;&gt;&lt;span style=&quot;background-color: initial; font-size: 14px;&quot;&gt;&lt;font color=&quot;#4f4f4f&quot;&gt;string&lt;/font&gt;&lt;/span&gt;&lt;/div&gt;" style="shape=partialRectangle;html=1;whiteSpace=wrap;connectable=0;strokeColor=inherit;overflow=hidden;fillColor=none;top=0;left=0;bottom=0;right=0;pointerEvents=1;" vertex="1" parent="zcUEx8ZnKFg3kneJtw9s-223">
          <mxGeometry x="320" width="100" height="30" as="geometry">
            <mxRectangle width="100" height="30" as="alternateBounds" />
          </mxGeometry>
        </mxCell>
        <mxCell id="zcUEx8ZnKFg3kneJtw9s-227" value="&lt;div style=&quot;text-align: left;&quot;&gt;&lt;font color=&quot;#4f4f4f&quot;&gt;&lt;span style=&quot;font-size: 14px;&quot;&gt;Подробное описание кода состояния&lt;/span&gt;&lt;/font&gt;&lt;/div&gt;" style="shape=partialRectangle;html=1;whiteSpace=wrap;connectable=0;strokeColor=inherit;overflow=hidden;fillColor=none;top=0;left=0;bottom=0;right=0;pointerEvents=1;" vertex="1" parent="zcUEx8ZnKFg3kneJtw9s-223">
          <mxGeometry x="420" width="520" height="30" as="geometry">
            <mxRectangle width="520" height="30" as="alternateBounds" />
          </mxGeometry>
        </mxCell>
        <mxCell id="zcUEx8ZnKFg3kneJtw9s-228" value="&lt;span style=&quot;color: rgb(79, 79, 79); font-size: 14px; text-align: left;&quot;&gt;да&lt;/span&gt;" style="shape=partialRectangle;html=1;whiteSpace=wrap;connectable=0;strokeColor=inherit;overflow=hidden;fillColor=none;top=0;left=0;bottom=0;right=0;pointerEvents=1;" vertex="1" parent="zcUEx8ZnKFg3kneJtw9s-223">
          <mxGeometry x="940" width="150" height="30" as="geometry">
            <mxRectangle width="150" height="30" as="alternateBounds" />
          </mxGeometry>
        </mxCell>
        <mxCell id="zcUEx8ZnKFg3kneJtw9s-277" value="&lt;div style=&quot;text-align: left;&quot;&gt;&lt;font color=&quot;#4f4f4f&quot;&gt;&lt;span style=&quot;font-size: 14px;&quot;&gt;&lt;b&gt;Responce&lt;/b&gt;&lt;/span&gt;&lt;/font&gt;&lt;/div&gt;" style="text;html=1;align=center;verticalAlign=middle;whiteSpace=wrap;rounded=0;" vertex="1" parent="1">
          <mxGeometry x="50" y="1120" width="80" height="30" as="geometry" />
        </mxCell>
        <mxCell id="zcUEx8ZnKFg3kneJtw9s-278" value="&lt;div style=&quot;text-align: left;&quot;&gt;&lt;span style=&quot;font-size: 14px;&quot;&gt;&lt;b style=&quot;&quot;&gt;&lt;font color=&quot;#007fff&quot;&gt;Оценка товара успешно создана&lt;/font&gt;&lt;/b&gt;&lt;/span&gt;&lt;/div&gt;" style="text;html=1;align=center;verticalAlign=middle;whiteSpace=wrap;rounded=0;" vertex="1" parent="1">
          <mxGeometry x="50" y="1181" width="240" height="30" as="geometry" />
        </mxCell>
        <mxCell id="zcUEx8ZnKFg3kneJtw9s-281" value="" style="endArrow=none;html=1;rounded=0;" edge="1" parent="1">
          <mxGeometry width="50" height="50" relative="1" as="geometry">
            <mxPoint x="108" y="1341" as="sourcePoint" />
            <mxPoint x="107.5" y="1281" as="targetPoint" />
          </mxGeometry>
        </mxCell>
        <mxCell id="zcUEx8ZnKFg3kneJtw9s-282" value="" style="endArrow=none;html=1;rounded=0;entryX=0.051;entryY=0.033;entryDx=0;entryDy=0;entryPerimeter=0;" edge="1" parent="1">
          <mxGeometry width="50" height="50" relative="1" as="geometry">
            <mxPoint x="100.41" y="800" as="sourcePoint" />
            <mxPoint x="99.99999999999991" y="501.99" as="targetPoint" />
          </mxGeometry>
        </mxCell>
        <mxCell id="zcUEx8ZnKFg3kneJtw9s-283" value="" style="endArrow=none;html=1;rounded=0;" edge="1" parent="1">
          <mxGeometry width="50" height="50" relative="1" as="geometry">
            <mxPoint x="144" y="530" as="sourcePoint" />
            <mxPoint x="143.84" y="800" as="targetPoint" />
          </mxGeometry>
        </mxCell>
      </root>
    </mxGraphModel>
  </diagram>
</mxfile>
